<?xml version="1.0" encoding="utf-8"?>
<!-- Generator: Adobe Illustrator 16.0.0, SVG Export Plug-In . SVG Version: 6.00 Build 0)  -->
<!DOCTYPE svg PUBLIC "-//W3C//DTD SVG 1.1//EN" "http://www.w3.org/Graphics/SVG/1.1/DTD/svg11.dtd">
<svg version="1.1" id="Layer_1" xmlns="http://www.w3.org/2000/svg" xmlns:xlink="http://www.w3.org/1999/xlink" x="0px" y="0px"
	 width="2400px" height="1430px" viewBox="0 0 2400 1430" enable-background="new 0 0 2400 1430" xml:space="preserve">
<g>
	<path fill="#EAE0D6" d="M1375.1,889.432v42.314v4.885v0.152h1.524h142.825l0.304-54.626c0,0,1.306-10.44-13.427-18.009
		l-28.079-16.63c0,0-2.089-5.102-38.453-4.271h-48.373c0,0-12.978-0.218-15.531,14.188L1375.1,889.432z"/>
	<path fill="#3B2314" stroke="#262261" stroke-miterlimit="10" d="M864.837,638.622"/>
	<path fill="#C3996B" d="M499.232,966.998"/>
	<path fill="#C3996B" d="M355.797,930.985"/>
	<path fill="#9A8479" stroke="#262261" stroke-miterlimit="10" d="M829.434,682.571"/>
	<path fill="#A87C4F" d="M873.837,655.103"/>
	<path fill="none" stroke="#EB008B" stroke-linecap="round" stroke-linejoin="round" stroke-miterlimit="10" d="M1032.984,641.369"
		/>
	<path fill="#E2DACF" d="M1059.389,717.169"/>
	<path fill="#E2DACF" d="M421.718,1111.348"/>
	<path fill="#DBD5CC" d="M495.517,1075.082"/>
	<path fill="none" stroke="#EEEBE6" stroke-width="2" stroke-miterlimit="10" d="M875.467,959.116"/>
	<path fill="none" stroke="#EEEBE6" stroke-width="2" stroke-miterlimit="10" d="M842.813,1033.756"/>
	<path fill="none" stroke="#EEEBE6" stroke-width="2" stroke-miterlimit="10" d="M842.813,1117.199"/>
	<path fill="#DBD5CC" d="M124.413,760.059"/>
	<path opacity="0.4" fill="#FFFFFF" d="M573.769,825.115l156.917-82.797l31.283,61.798c0,0,9.944,21.006,29.145,18.768
		c0,0,8.561-3.729,15.259-2.135l58.594,18.746l-30.214,98.748l-93.114,50.898l-100.217-32.36l-40.742-77.743l-24.973-50.136
		L573.769,825.115z"/>
	<path fill="none" d="M1005.131,984.117c-0.035-0.403-0.067-0.816-0.109-1.199C1005.059,983.305,1005.096,983.707,1005.131,984.117z
		"/>
	<path fill="#DEC291" d="M1005.277,986.159c-0.045-0.706-0.091-1.386-0.146-2.042
		C1005.188,984.777,1005.243,985.445,1005.277,986.159z"/>
	<polygon fill="#EEEBE6" points="982.28,693.096 944.133,618.915 985.076,596.121 1024.699,669.505 	"/>
	<path fill="#DEC291" d="M744.928,767.235c0,0,38.364-24.468,73.928-10.264c0,0,41.605,12.683,50.506,60.015
		c0,0-0.464,13.942-2.438,21.582l-57.987-17.176c0,0-16.721,6.139-32.348-3.761c0,0-9.132-5.111-19.533-26.977L744.928,767.235z"/>
	<path fill="none" d="M674.599,594.77l6.114,11.452l-6.002-11.596C674.671,594.675,674.636,594.722,674.599,594.77z"/>
	<path fill="#DEC291" d="M64.336,619.29"/>
	<polygon fill="#DEC291" points="680.731,606.25 680.731,606.25 680.713,606.221 	"/>
	<polygon fill="#DBD5CC" points="583.445,341.545 791.711,229.5 851.958,342.668 742.822,401.427 700.063,323.155 600.393,375.859 	
		"/>
	<polyline fill="#DBD5CC" points="2339.312,1141.612 2339.312,1178.081 2065.971,1192.574 2065.971,1141.612 2257.931,1141.612 	"/>
	<path fill="#DBD5CC" d="M551.814,1188.641"/>
	<path fill="#EEEBE6" d="M494.164,1173.818c-0.579-0.182-1.145-0.364-1.716-0.546
		C493.021,1173.457,493.592,1173.637,494.164,1173.818z"/>
	<path fill="#EEEBE6" d="M410.798,1138.702c-0.129-0.07-0.258-0.14-0.388-0.21C410.54,1138.563,410.668,1138.632,410.798,1138.702z"
		/>
	<path fill="#DBD5CC" d="M496.769,1174.632c-0.869-0.272-1.731-0.535-2.605-0.813
		C495.025,1174.092,495.895,1174.359,496.769,1174.632z"/>
	<path fill="#DBD5CC" d="M432.382,1149.642c0,0,22.618,11.681,60.065,23.631c-26.135-8.398-54.053-19.608-81.65-34.57
		C417.722,1142.486,424.904,1146.146,432.382,1149.642z"/>
	<path fill="#DBD5CC" d="M258.32,981.43l-0.632,0.325c0,0,7.24,16.979,24.019,41.212c-7.972-12.109-15.348-25.024-21.957-38.862
		L258.32,981.43z"/>
	<path fill="#DBD5CC" d="M410.41,1138.492c-1.207-0.655-2.414-1.343-3.621-2.014C407.989,1137.154,409.194,1137.827,410.41,1138.492
		z"/>
	<polygon fill="#EEEBE6" points="153.461,591.881 182.439,645.382 245.865,598.664 325.113,557.196 300.964,513.679 	"/>
	<path fill="#DBD5CC" d="M2147.938,667.54"/>
	<path fill="#DEC291" d="M1070.59,858.913"/>
	<path fill="none" d="M1066.169,910.532c1.35-5.013,2.988-10.029,4.652-14.65c-2.936,7.706-4.597,14.429-4.597,14.429
		C1066.204,910.389,1066.192,910.455,1066.169,910.532z"/>
	<path fill="#EEEBE6" d="M1066.169,910.532c-3.75,13.957-5.2,27.815,1.714,32.586c0.487,0.114,0.984,0.212,1.485,0.266
		C1069.368,943.384,1058.645,937.992,1066.169,910.532z"/>
	<path opacity="0.4" fill="#FFFFFF" d="M1888.746,955.554c0,14.044-11.385,25.432-25.432,25.432h-93.046
		c-14.048,0-25.432-11.388-25.432-25.432v-84.188c0-14.047,11.384-25.432,25.432-25.432h93.046
		c14.047,0,25.432,11.385,25.432,25.432V955.554z"/>
	<path fill="#DEC291" d="M1748.023,968.011v-17.494V846.834v-17.17h-172.217c-7.026,0-12.717,5.692-12.717,12.717V968.27
		c0,7.022,5.69,12.716,12.717,12.716h189.107c0.875,0,1.733-0.089,2.563-0.259h-6.738
		C1753.719,980.727,1748.023,975.034,1748.023,968.011z"/>
	<polygon fill="#DEC291" points="716.822,655.408 761.686,631.297 792.203,689.436 746.426,712.781 	"/>
	<polygon fill="#DEC291" points="374.105,811.507 424.614,784.193 443.08,817.914 392.42,844.618 	"/>
	<polygon fill="#DEC291" points="407.828,751.763 436.389,760.391 445.826,729.564 417.612,720.947 	"/>
	<polygon fill="#DEC291" points="532.8,747.419 555.997,791.061 698.513,715.669 675.625,671.735 	"/>
	<polygon fill="#DBD5CC" points="137.899,760.082 210.683,720.629 145.833,599.426 73.124,636.677 	"/>
	<path fill="#EEEBE6" d="M1375.961,604.801v40.452h-362.93L791.711,229.5L64.336,619.29l191.706,362.579
		c8.392,16.885,19.057,33.062,30.237,47.779c19.561,28.144,42.477,51.601,67.019,71.141c0.422,0.358,0.666,0.563,0.666,0.563l0,0
		l0.184,0.123c16.982,13.436,34.715,25.035,52.641,35.004c1.208,0.671,2.415,1.358,3.621,2.014c0.129,0.07,0.258,0.14,0.388,0.21
		c27.597,14.962,55.515,26.172,81.65,34.57c0.571,0.182,1.137,0.364,1.716,0.546c0.874,0.278,1.736,0.541,2.605,0.813
		c20.172,6.253,44.307,12.464,71.341,16.997c2.192,0.27,53.506,6.578,82.329,6.586l18.729,0.007h332.017h4.296h943.609
		l390.221-20.141v-573.28H1375.961z M290.633,1035.273c17.132,21.746,34.934,39.866,47.288,51.591
		C318.226,1069.012,302.629,1051.119,290.633,1035.273z"/>
	<rect x="2264.084" y="1016.437" fill="#EEEBE6" width="75.652" height="115.442"/>
	<path fill="#DEC291" d="M810.447,1130.61"/>
	<path fill="none" stroke="#EEEBE6" stroke-width="2" stroke-miterlimit="10" d="M679.325,435.415"/>
	<path fill="none" stroke="#EEEBE6" stroke-width="2" stroke-miterlimit="10" d="M632.5,966.998"/>
	<polyline fill="none" stroke="#EEEBE6" stroke-width="2" stroke-miterlimit="10" points="245.865,598.664 356.935,818.223 
		460.728,763.122 545.871,817.662 	"/>
	
		<line fill="none" stroke="#EEEBE6" stroke-width="2" stroke-miterlimit="10" x1="814.431" y1="984.139" x2="814.431" y2="1130.471"/>
	
		<line fill="none" stroke="#EEEBE6" stroke-width="2" stroke-miterlimit="10" x1="678.982" y1="984.139" x2="678.982" y2="1198.222"/>
	
		<line fill="none" stroke="#EEEBE6" stroke-width="2" stroke-miterlimit="10" x1="906.238" y1="946.226" x2="906.238" y2="1130.471"/>
	<path fill="#DEC291" d="M2041.408,735.721"/>
	<line fill="none" stroke="#EEEBE6" stroke-width="2" stroke-miterlimit="10" x1="821.804" y1="652.475" x2="974.19" y2="572.405"/>
	<path fill="none" stroke="#EEEBE6" stroke-width="2" stroke-miterlimit="10" d="M1962.874,835.767"/>
	
		<line fill="none" stroke="#EEEBE6" stroke-width="2" stroke-miterlimit="10" x1="1925.948" y1="836.988" x2="2339.312" y2="836.988"/>
	
		<line fill="none" stroke="#EEEBE6" stroke-width="2" stroke-miterlimit="10" x1="1666.034" y1="658.321" x2="1666.034" y2="604.835"/>
	<polyline fill="none" stroke="#EEEBE6" stroke-width="2" stroke-miterlimit="10" points="520.844,1094.631 300.282,675.366 
		671.996,480.784 730.71,594.983 	"/>
	
		<line fill="none" stroke="#EEEBE6" stroke-width="2" stroke-miterlimit="10" x1="206.967" y1="722.643" x2="137.654" y2="759.896"/>
	
		<line fill="none" stroke="#EEEBE6" stroke-width="2" stroke-miterlimit="10" x1="256.042" y1="981.869" x2="328.781" y2="941.834"/>
	<path fill="#EAE0D6" d="M839.236,928.716c-3.708,11.296-15.87,17.452-27.17,13.747l-7.811-2.563
		c-11.298-3.708-17.45-15.875-13.744-27.171l21.138-64.431c3.706-11.296,15.87-17.451,27.167-13.746l7.813,2.563
		c11.298,3.708,17.452,15.875,13.744,27.17L839.236,928.716z"/>
	<polyline fill="#DBD5CC" points="671.996,480.784 595.972,334.97 555.005,356.475 60,614.134 74.079,640.313 145.281,602.106 
		210.26,721.582 288.674,679.755 245.865,598.664 200.087,623.248 179.089,582.878 236.353,551.779 300.282,675.366 	"/>
	<path fill="#C9DCDB" d="M362.321,758.928"/>
	<path fill="#C9DCDB" d="M2082.349,1486.452"/>
	<path fill="#DBD5CC" d="M69.231,631.297l170.057,318.879c0,0,67.121,141.116,160.14,182.104l22.29-12.045l-69.994-131.095
		l64.287-34.656L287.509,711.102L222,747.481l-22.268-45.256l-55.277-115.964L69.231,631.297z"/>
	<path fill="#DBD5CC" d="M424.236,1145.679l166.545-92.672l59.765,110.276l-0.107,34.932
		C650.438,1198.215,529.81,1201.64,424.236,1145.679z"/>
	<rect x="897.998" y="773.635" fill="#EAE0D6" width="477.963" height="66.53"/>
	<polygon fill="#DBD5CC" points="309.643,693.096 520.844,1094.631 586.873,1057.305 619.516,1116.021 864.837,986.159 
		931.141,765.711 738.23,397.058 654.239,443.118 671.996,480.784 300.282,675.366 	"/>
	<polygon fill="#DBD5CC" points="1798.858,1198.222 1798.858,1113.242 2069.633,1113.242 2069.633,1171.735 2199.971,1171.735 
		2199.971,1141.612 2144.654,1141.612 2144.654,1061.537 2220.314,1061.537 2220.314,1034.364 2339.736,1034.364 2339.736,1178.081 
		2065.971,1192.574 	"/>
	<polygon fill="#C9DCDB" points="2339.736,1059.56 2339.736,645.253 1375.961,645.253 1375.961,840.165 1563.09,842.381 
		1563.09,1063.517 	"/>
	<polygon fill="#DBD5CC" points="1368.99,1198.222 1368.99,1158.384 1527.992,1158.384 1527.992,1061.537 1714.225,1061.537 
		1714.225,1198.222 	"/>
	
		<rect x="1375.961" y="791.061" fill="#DEC291" stroke="#EEEBE6" stroke-width="2" stroke-miterlimit="10" width="184.402" height="51.32"/>
	
		<rect x="1375.961" y="682.784" fill="#C6C4BE" stroke="#EEEBE6" stroke-width="2" stroke-miterlimit="10" width="185.835" height="51.32"/>
	<rect x="2245.747" y="604.835" fill="#DBD5CC" width="93.989" height="40.417"/>
	<polygon fill="#DBD5CC" points="774.036,466.894 886.728,407.989 989.534,601.113 876.738,661.747 	"/>
	<polygon fill="#DBD5CC" points="999.243,747.421 1375.1,747.421 1375.1,645.253 1042.83,645.253 1042.83,679.632 999.243,702.226 	
		"/>
	<polygon fill="#DBD5CC" points="921.572,747.421 978.979,747.421 978.979,689.959 946.792,624.088 876.738,661.747 	"/>
	<g>
		<g>
			<defs>
				
					<rect id="SVGID_1_" x="1362.803" y="888.568" transform="matrix(-0.8306 0.5568 -0.5568 -0.8306 3124.9045 843.6653)" width="142.681" height="17.031"/>
			</defs>
			<clipPath id="SVGID_2_">
				<use xlink:href="#SVGID_1_"  overflow="visible"/>
			</clipPath>
			
				<linearGradient id="SVGID_3_" gradientUnits="userSpaceOnUse" x1="507.3452" y1="992.6309" x2="509.0288" y2="992.6309" gradientTransform="matrix(70.4003 -47.1934 -56.4683 -84.236 21709.7813 108495.2813)">
				<stop  offset="0" style="stop-color:#CBCBCB"/>
				<stop  offset="1" style="stop-color:#E4E3E1"/>
			</linearGradient>
			<polygon clip-path="url(#SVGID_2_)" fill="url(#SVGID_3_)" points="1370.142,929.734 1488.66,850.286 1498.143,864.433 
				1379.627,943.881 			"/>
		</g>
		<g>
			<defs>
				
					<rect id="SVGID_4_" x="1373.743" y="904.705" transform="matrix(-0.8306 0.5568 -0.5568 -0.8306 3154.0188 867.4582)" width="142.681" height="17.396"/>
			</defs>
			<clipPath id="SVGID_5_">
				<use xlink:href="#SVGID_4_"  overflow="visible"/>
			</clipPath>
			
				<linearGradient id="SVGID_6_" gradientUnits="userSpaceOnUse" x1="507.9756" y1="996.46" x2="509.6592" y2="996.46" gradientTransform="matrix(-70.4003 47.1934 56.4683 84.236 -19002.4688 -107037.1563)">
				<stop  offset="0" style="stop-color:#CBCBCB"/>
				<stop  offset="1" style="stop-color:#E4E3E1"/>
			</linearGradient>
			<polygon clip-path="url(#SVGID_5_)" fill="url(#SVGID_6_)" points="1509.185,880.904 1390.669,960.352 1380.983,945.903 
				1499.498,866.454 			"/>
		</g>
		
			<rect x="1358.065" y="889.169" transform="matrix(0.8306 -0.5568 0.5568 0.8306 -253.4852 946.6602)" fill="#A8A7A7" width="142.682" height="1.694"/>
		
			<rect x="1367.201" y="902.798" transform="matrix(0.8306 -0.5568 0.5568 0.8306 -259.5261 954.0657)" fill="#A8A7A7" width="142.683" height="1.695"/>
		
			<rect x="1369.165" y="905.737" transform="matrix(0.8306 -0.5568 0.5568 0.8306 -260.8252 955.6329)" fill="#A8A7A7" width="142.684" height="1.675"/>
		
			<rect x="1378.589" y="919.786" transform="matrix(0.8306 -0.5568 0.5568 0.8306 -267.0573 963.2714)" fill="#A8A7A7" width="142.684" height="1.695"/>
	</g>
	
		<line fill="#DEC291" stroke="#EEEBE6" stroke-width="2" stroke-miterlimit="10" x1="1500.231" y1="1060.261" x2="2339.736" y2="1060.261"/>
	<g id="_x31_8_x25__16_">
		<rect x="788.878" y="378.956" fill="#3E3A39" width="45.777" height="45.777"/>
		<path fill="#FFFFFF" d="M827.38,402.015l-3.038-9.224c-0.404-1.201-1.495-1.135-1.736-1.135h-4.239
			c-0.244,0-1.332-0.066-1.733,1.135l-3.041,9.224c-0.164,0.482,0.08,1.011,0.539,1.18s0.961-0.084,1.12-0.568l2.444-7.411
			l0.134,4.525l-2.231,16.021c-0.096,0.753,0.433,1.441,1.183,1.54c0.755,0.1,1.446-0.43,1.545-1.182l1.763-11.693
			c0.044-0.292,0.198-0.442,0.397-0.442c0.194,0,0.351,0.149,0.396,0.442l1.766,11.693c0.1,0.752,0.791,1.282,1.54,1.182
			c0.75-0.099,1.282-0.787,1.183-1.54l-2.228-16.021l0.132-4.525l2.443,7.411c0.162,0.484,0.666,0.737,1.123,0.568
			C827.298,403.026,827.542,402.497,827.38,402.015 M820.488,391.162c1.322,0,2.395-1.07,2.395-2.391
			c0-1.321-1.073-2.395-2.395-2.395c-1.323,0-2.394,1.073-2.394,2.395C818.094,390.092,819.165,391.162,820.488,391.162
			 M809.943,402.015l-3.042-9.224c-0.403-1.201-1.492-1.135-1.736-1.135h-4.237c-0.244,0-1.331-0.066-1.733,1.135l-3.04,9.224
			c-0.164,0.482,0.08,1.011,0.54,1.18c0.457,0.169,0.96-0.084,1.12-0.568l2.444-7.411l0.623,3.641l-3.156,10.003
			c-0.162,0.634,0.099,0.926,0.64,0.926h2.365l0.87,6.053c0.119,0.895,0.646,1.451,1.45,1.451c0.799,0,1.326-0.556,1.445-1.451
			l0.869-6.053h2.364c0.542,0,0.805-0.292,0.643-0.926l-3.156-10.003l0.622-3.641l2.443,7.411c0.161,0.484,0.661,0.737,1.122,0.568
			C809.859,403.026,810.102,402.497,809.943,402.015 M803.049,391.162c1.318,0,2.394-1.07,2.394-2.391
			c0-1.321-1.076-2.395-2.394-2.395c-1.321,0-2.397,1.073-2.397,2.395C800.652,390.092,801.728,391.162,803.049,391.162"/>
	</g>
	<g id="_x31_8_x25__5_">
		<rect x="1470.173" y="604.443" fill="#3E3A39" width="45.777" height="45.776"/>
		<path fill="#FFFFFF" d="M1508.676,627.503l-3.037-9.224c-0.406-1.203-1.496-1.135-1.737-1.135h-4.239
			c-0.244,0-1.33-0.067-1.732,1.135l-3.041,9.224c-0.163,0.481,0.08,1.01,0.54,1.179c0.459,0.169,0.96-0.084,1.119-0.569
			l2.444-7.411l0.134,4.525l-2.23,16.021c-0.097,0.752,0.433,1.44,1.183,1.54c0.755,0.099,1.445-0.43,1.546-1.182l1.762-11.693
			c0.044-0.293,0.199-0.442,0.397-0.442c0.193,0,0.35,0.149,0.396,0.442l1.766,11.693c0.101,0.752,0.789,1.281,1.539,1.182
			c0.751-0.1,1.282-0.788,1.183-1.54l-2.229-16.021l0.133-4.525l2.443,7.411c0.161,0.484,0.666,0.738,1.123,0.569
			S1508.836,627.985,1508.676,627.503 M1501.783,616.649c1.321,0,2.395-1.07,2.395-2.391c0-1.321-1.073-2.395-2.395-2.395
			c-1.323,0-2.395,1.073-2.395,2.395C1499.389,615.579,1500.46,616.649,1501.783,616.649 M1491.239,627.503l-3.044-9.224
			c-0.402-1.203-1.492-1.135-1.735-1.135h-4.237c-0.243,0-1.331-0.067-1.733,1.135l-3.04,9.224c-0.163,0.481,0.079,1.01,0.539,1.179
			c0.457,0.169,0.961-0.084,1.12-0.569l2.444-7.411l0.623,3.642l-3.156,10.003c-0.162,0.633,0.099,0.927,0.64,0.927h2.365
			l0.868,6.052c0.12,0.894,0.646,1.451,1.45,1.451c0.801,0,1.326-0.557,1.447-1.451l0.868-6.052h2.365
			c0.542,0,0.805-0.294,0.642-0.927l-3.155-10.003l0.621-3.642l2.443,7.411c0.161,0.484,0.66,0.738,1.123,0.569
			C1491.154,628.514,1491.396,627.985,1491.239,627.503 M1484.343,616.649c1.319,0,2.396-1.07,2.396-2.391
			c0-1.321-1.076-2.395-2.396-2.395c-1.32,0-2.396,1.073-2.396,2.395C1481.947,615.579,1483.022,616.649,1484.343,616.649"/>
	</g>
	<g>
		<rect x="966.007" y="629.216" fill="#BCB8B3" width="45.778" height="45.777"/>
		<path fill="#FFFFFF" d="M975.452,655.259l2.06-1.733v11.044c0,0.566,0.457,1.023,1.023,1.023h0.22
			c0.569,0,1.024-0.457,1.024-1.023v-3.907l2.163,1.746c0.448,0.348,1.088,0.271,1.438-0.174l0.136-0.176
			c0.348-0.447,0.273-1.088-0.176-1.437l-3.544-2.865l1.242-2.027v-4.632l0.571,0.875l0.005,0.015l0.209,3.907
			c0.025,0.412,0.382,0.725,0.792,0.7c0.415-0.025,0.725-0.38,0.703-0.793l-0.214-4c-0.005-0.065-0.022-0.127-0.04-0.187v-0.005
			c-0.044-0.387-2.364-3.568-2.364-3.568v0.002c-0.313-0.425-0.814-0.705-1.388-0.705c-0.946,0-1.716,0.772-1.716,1.72v2.439
			l-3.105,2.615c-0.317,0.266-0.357,0.737-0.089,1.053C974.666,655.485,975.137,655.524,975.452,655.259 M978.778,646.994
			c1.041,0,1.888-0.845,1.888-1.888c0-1.046-0.847-1.893-1.888-1.893c-1.043,0-1.893,0.847-1.893,1.893
			C976.885,646.149,977.734,646.994,978.778,646.994 M994.588,656.561v3.429h-6.79v2.449v0.979h-6.788v3.427h-6.787v2.449h8.988
			v-3.428h6.787v-3.427h6.791v-3.43h6.784v-2.448H994.588z M990.192,648.322c0.412,0.05,0.785-0.246,0.83-0.653l0.506-3.976
			l0.005-0.052l0.516-0.73l-0.067,3.591l0.003,0.071c-0.005,0.348-0.015,0.85-0.049,1.123l-1.197,9.937
			c-0.05,0.562,0.362,1.061,0.924,1.115l0.224,0.02c0.561,0.052,1.063-0.362,1.115-0.924l1.143-9.512l0.032,0.03l2.725,2.432
			l-0.636,3.72c-0.08,0.559,0.31,1.078,0.871,1.16l0.219,0.03c0.561,0.082,1.075-0.308,1.157-0.867l0.715-4.192l0.002-0.013
			c0.097-0.693-0.34-1.102-0.34-1.102l-0.005,0.002l-0.072-0.072l-3.171-2.829c-0.075-0.065-0.159-0.112-0.244-0.152l0.018-1.12
			l2.118,1.819c0.318,0.265,0.79,0.223,1.053-0.093c0.268-0.315,0.227-0.787-0.084-1.053l-3.044-2.608l-0.005-0.005l0.044-2.553
			c0.02-0.934-0.725-1.701-1.659-1.721h-0.034c-0.562-0.01-1.063,0.258-1.376,0.676l-0.109,0.122l-2.106,2.971
			c-0.052,0.072-0.084,0.151-0.109,0.231v-0.002v0.02l-0.03,0.16c-0.004,0.046-0.015,0.106-0.025,0.176l-0.005,0.017l-0.03,0.261
			l0,0l-0.472,3.715C989.487,647.9,989.78,648.271,990.192,648.322 M994.504,638.699c1.041,0,1.885-0.847,1.885-1.891
			c0-1.045-0.844-1.892-1.885-1.892c-1.048,0-1.892,0.847-1.892,1.892C992.612,637.852,993.456,638.699,994.504,638.699"/>
	</g>
	<g>
		<rect x="694.813" y="292.575" fill="#BCB8B3" width="45.776" height="45.778"/>
		<path fill="#FFFFFF" d="M704.255,318.617l2.056-1.733v11.045c0,0.566,0.462,1.022,1.025,1.022h0.224
			c0.564,0,1.023-0.457,1.023-1.022v-3.907l2.163,1.746c0.444,0.348,1.088,0.271,1.438-0.174l0.137-0.176
			c0.348-0.447,0.271-1.088-0.176-1.436l-3.549-2.866l1.244-2.024v-4.634l0.571,0.875l0.003,0.015l0.214,3.906
			c0.022,0.413,0.377,0.726,0.789,0.701c0.416-0.025,0.729-0.38,0.701-0.792l-0.214-4.001c-0.005-0.064-0.021-0.127-0.035-0.186
			v-0.005c-0.049-0.387-2.365-3.569-2.365-3.569v0.002c-0.313-0.425-0.816-0.705-1.387-0.705c-0.95,0-1.722,0.772-1.722,1.721v2.439
			l-3.104,2.616c-0.313,0.265-0.355,0.738-0.087,1.053C703.471,318.844,703.938,318.883,704.255,318.617 M707.579,310.352
			c1.043,0,1.893-0.844,1.893-1.887c0-1.046-0.85-1.892-1.893-1.892c-1.041,0-1.888,0.846-1.888,1.892
			C705.69,309.508,706.538,310.352,707.579,310.352 M723.389,319.919v3.43h-6.788v2.449v0.979h-6.786v3.428h-6.788v2.449h8.988
			v-3.427h6.788v-3.428h6.785v-3.429h6.785v-2.449H723.389z M718.995,311.681c0.41,0.05,0.785-0.245,0.833-0.653l0.506-3.977V307
			l0.52-0.73l-0.067,3.591l0.005,0.072c-0.008,0.347-0.018,0.849-0.05,1.122l-1.197,9.937c-0.055,0.561,0.362,1.061,0.923,1.115
			l0.221,0.02c0.563,0.052,1.063-0.363,1.117-0.924l1.14-9.512l0.035,0.03l2.722,2.432l-0.636,3.721
			c-0.077,0.558,0.308,1.078,0.872,1.16l0.218,0.029c0.562,0.082,1.078-0.308,1.16-0.866l0.713-4.192l0.002-0.013
			c0.1-0.693-0.34-1.103-0.34-1.103l-0.005,0.002l-0.069-0.072l-3.177-2.829c-0.072-0.064-0.159-0.112-0.243-0.152l0.02-1.12
			l2.121,1.817c0.313,0.267,0.788,0.227,1.053-0.091c0.268-0.315,0.226-0.785-0.087-1.053l-3.045-2.608l-0.005-0.004l0.047-2.553
			c0.015-0.934-0.727-1.702-1.659-1.719l-0.035-0.002c-0.563-0.01-1.063,0.258-1.381,0.675l-0.106,0.122l-2.104,2.971
			c-0.052,0.071-0.085,0.151-0.109,0.231l-0.002-0.003v0.02l-0.027,0.159c-0.008,0.047-0.018,0.107-0.03,0.176v0.018l-0.035,0.261
			l0,0l-0.472,3.715C718.292,311.259,718.585,311.631,718.995,311.681 M723.304,302.057c1.046,0,1.89-0.847,1.89-1.89
			c0-1.046-0.844-1.893-1.89-1.893c-1.043,0-1.89,0.847-1.89,1.893C721.414,301.21,722.261,302.057,723.304,302.057"/>
	</g>
	<g>
		<rect x="1599.961" y="604.443" fill="#BCB8B3" width="45.777" height="45.776"/>
		<path fill="#FFFFFF" d="M1609.408,630.486l2.057-1.734v11.045c0,0.563,0.457,1.022,1.022,1.022h0.225
			c0.566,0,1.023-0.459,1.023-1.022v-3.907l2.16,1.746c0.447,0.348,1.089,0.271,1.44-0.173l0.135-0.176
			c0.348-0.448,0.274-1.088-0.175-1.437l-3.546-2.866l1.241-2.027v-4.632l0.571,0.875l0.006,0.013l0.208,3.909
			c0.024,0.412,0.382,0.725,0.795,0.7c0.413-0.025,0.725-0.38,0.7-0.795l-0.214-3.998c-0.005-0.064-0.021-0.129-0.039-0.187v-0.005
			c-0.046-0.39-2.365-3.569-2.365-3.569v0.002c-0.313-0.425-0.815-0.706-1.386-0.706c-0.948,0-1.719,0.773-1.719,1.722v2.438
			l-3.104,2.615c-0.318,0.266-0.357,0.737-0.09,1.053C1608.618,630.712,1609.09,630.749,1609.408,630.486 M1612.732,622.22
			c1.042,0,1.887-0.845,1.887-1.887c0-1.048-0.845-1.893-1.887-1.893c-1.043,0-1.894,0.845-1.894,1.893
			C1610.839,621.375,1611.689,622.22,1612.732,622.22 M1628.542,631.787v3.427h-6.79v2.448v0.979h-6.786v3.428h-6.789v2.449h8.991
			v-3.427h6.783v-3.428h6.791v-3.426h6.785v-2.449H1628.542z M1624.146,623.546c0.413,0.05,0.785-0.243,0.829-0.65l0.507-3.978
			l0.007-0.05l0.516-0.729l-0.065,3.591v0.072c-0.005,0.348-0.015,0.85-0.048,1.12l-1.199,9.94c-0.049,0.561,0.365,1.06,0.925,1.112
			l0.224,0.02c0.562,0.055,1.063-0.36,1.117-0.924l1.144-9.512l0.032,0.032l2.724,2.432l-0.636,3.721
			c-0.076,0.558,0.308,1.078,0.869,1.157l0.221,0.032c0.56,0.083,1.076-0.308,1.156-0.866l0.715-4.192v-0.012
			c0.098-0.693-0.338-1.105-0.338-1.105l-0.005,0.004l-0.07-0.072l-3.175-2.829c-0.073-0.064-0.157-0.114-0.242-0.154l0.019-1.117
			l2.117,1.818c0.317,0.263,0.79,0.224,1.053-0.092c0.269-0.315,0.229-0.787-0.085-1.053l-3.044-2.61l-0.005-0.002l0.044-2.556
			c0.021-0.931-0.725-1.698-1.658-1.719h-0.034c-0.562-0.01-1.063,0.258-1.377,0.676l-0.109,0.122l-2.105,2.97
			c-0.05,0.072-0.085,0.151-0.109,0.23v-0.002v0.017l-0.03,0.16c-0.004,0.049-0.016,0.109-0.024,0.178l-0.003,0.018l-0.032,0.261
			l0,0l-0.472,3.715C1623.44,623.127,1623.734,623.497,1624.146,623.546 M1628.457,613.926c1.044,0,1.888-0.85,1.888-1.893
			s-0.844-1.89-1.888-1.89c-1.048,0-1.891,0.847-1.891,1.89S1627.409,613.926,1628.457,613.926"/>
	</g>
	<g>
		<rect x="193.511" y="556.642" fill="#BCB8B3" width="45.777" height="45.777"/>
		<path fill="#FFFFFF" d="M202.954,582.685l2.057-1.734v11.047c0,0.563,0.459,1.023,1.023,1.023h0.224
			c0.566,0,1.023-0.459,1.023-1.023v-3.907l2.166,1.746c0.444,0.348,1.087,0.269,1.435-0.174l0.136-0.179
			c0.348-0.444,0.271-1.087-0.174-1.436l-3.546-2.863l1.239-2.027v-4.632l0.572,0.874l0.005,0.013l0.21,3.907
			c0.023,0.413,0.38,0.726,0.793,0.703c0.414-0.025,0.727-0.38,0.7-0.795l-0.211-4.001c-0.007-0.065-0.022-0.126-0.037-0.184v-0.005
			c-0.05-0.39-2.364-3.568-2.364-3.568v0.002c-0.315-0.427-0.82-0.706-1.391-0.706c-0.946,0-1.718,0.77-1.718,1.721v2.437
			l-3.105,2.618c-0.313,0.266-0.358,0.737-0.089,1.052C202.167,582.913,202.636,582.95,202.954,582.685 M206.279,574.422
			c1.041,0,1.887-0.847,1.887-1.891c0-1.044-0.847-1.892-1.887-1.892c-1.046,0-1.89,0.847-1.89,1.892
			C204.39,573.575,205.233,574.422,206.279,574.422 M222.09,583.989v3.427h-6.79v2.449v0.979h-6.786v3.428h-6.787v2.449h8.985
			v-3.427h6.79v-3.428h6.785v-3.427h6.788v-2.449H222.09z M217.691,575.748c0.415,0.05,0.787-0.243,0.832-0.653l0.507-3.976
			l0.002-0.05l0.516-0.733l-0.064,3.592l0.002,0.074c-0.008,0.348-0.017,0.85-0.047,1.12l-1.198,9.939
			c-0.052,0.561,0.363,1.06,0.922,1.113l0.221,0.02c0.566,0.052,1.063-0.36,1.118-0.924l1.142-9.512l0.035,0.032l2.724,2.429
			l-0.636,3.723c-0.082,0.559,0.306,1.076,0.867,1.157l0.219,0.032c0.561,0.08,1.078-0.308,1.159-0.867l0.713-4.192l0.005-0.013
			c0.097-0.692-0.343-1.105-0.343-1.105l-0.005,0.003l-0.067-0.07l-3.176-2.831c-0.075-0.064-0.159-0.112-0.244-0.152l0.02-1.117
			l2.122,1.815c0.315,0.266,0.784,0.227,1.053-0.089c0.268-0.315,0.226-0.787-0.089-1.053l-3.045-2.61l-0.005-0.003l0.05-2.555
			c0.015-0.932-0.73-1.701-1.659-1.719l-0.035-0.002c-0.566-0.01-1.063,0.26-1.378,0.675l-0.112,0.124l-2.104,2.971
			c-0.052,0.07-0.084,0.149-0.107,0.229h-0.005v0.017l-0.025,0.159c-0.01,0.05-0.02,0.106-0.03,0.177l-0.002,0.02l-0.032,0.258
			v0.003l-0.473,3.713C216.991,575.329,217.281,575.698,217.691,575.748 M222.005,566.124c1.041,0,1.885-0.846,1.885-1.89
			s-0.845-1.891-1.885-1.891c-1.046,0-1.896,0.847-1.896,1.891S220.959,566.124,222.005,566.124"/>
	</g>
	<g>
		<rect x="367.582" y="962.249" fill="#BCB8B3" width="45.777" height="45.777"/>
		<path fill="#FFFFFF" d="M377.026,988.293l2.057-1.734v11.047c0,0.563,0.459,1.024,1.023,1.024h0.224
			c0.566,0,1.022-0.461,1.022-1.024v-3.908l2.164,1.747c0.444,0.348,1.087,0.27,1.438-0.174l0.137-0.179
			c0.347-0.446,0.271-1.088-0.177-1.436l-3.546-2.866l1.242-2.023v-4.632l0.572,0.874l0.005,0.013l0.21,3.906
			c0.023,0.412,0.38,0.726,0.792,0.701c0.412-0.025,0.725-0.378,0.7-0.793l-0.213-4.001c-0.005-0.064-0.02-0.128-0.037-0.185v-0.004
			c-0.048-0.391-2.364-3.572-2.364-3.572v0.005c-0.313-0.428-0.817-0.704-1.389-0.704c-0.949,0-1.719,0.77-1.719,1.718v2.439
			l-3.104,2.618c-0.316,0.263-0.358,0.733-0.089,1.053C376.239,988.521,376.708,988.558,377.026,988.293 M380.349,980.026
			c1.043,0,1.89-0.843,1.89-1.887c0-1.046-0.847-1.894-1.89-1.894c-1.043,0-1.89,0.848-1.89,1.894
			C378.459,979.184,379.306,980.026,380.349,980.026 M396.159,989.594v3.43h-6.79v2.448v0.979h-6.785v3.428h-6.788v2.449h8.988
			v-3.428h6.788v-3.428h6.788v-3.429h6.785v-2.449H396.159z M391.763,981.355c0.413,0.05,0.786-0.245,0.833-0.653l0.507-3.976
			l0.002-0.053l0.516-0.73l-0.064,3.592l0.002,0.074c-0.008,0.348-0.017,0.851-0.049,1.12l-1.198,9.938
			c-0.052,0.561,0.363,1.062,0.924,1.114l0.221,0.021c0.564,0.051,1.063-0.36,1.118-0.925l1.142-9.513l0.033,0.033l2.724,2.429
			l-0.636,3.722c-0.079,0.56,0.308,1.078,0.869,1.159l0.219,0.032c0.561,0.079,1.078-0.309,1.16-0.869l0.713-4.193l0.002-0.009
			c0.099-0.695-0.34-1.104-0.34-1.104l-0.005,0.002l-0.07-0.07l-3.174-2.832c-0.075-0.063-0.159-0.11-0.244-0.15l0.02-1.12
			l2.118,1.818c0.316,0.266,0.788,0.226,1.053-0.09c0.269-0.318,0.226-0.787-0.086-1.053l-3.045-2.61l-0.005-0.003l0.047-2.555
			c0.018-0.933-0.728-1.701-1.659-1.719l-0.035-0.003c-0.563-0.01-1.063,0.259-1.378,0.676l-0.109,0.124l-2.104,2.97
			c-0.052,0.07-0.084,0.149-0.109,0.229h-0.002v0.017l-0.027,0.159c-0.007,0.047-0.017,0.107-0.027,0.177l-0.002,0.021l-0.032,0.258
			l0,0l-0.472,3.715C391.062,980.936,391.354,981.305,391.763,981.355 M396.075,971.732c1.043,0,1.888-0.848,1.888-1.891
			c0-1.046-0.844-1.891-1.888-1.891c-1.045,0-1.893,0.845-1.893,1.891C394.183,970.885,395.03,971.732,396.075,971.732"/>
	</g>
	<g>
		<rect x="413.358" y="1061.291" fill="#BCB8B3" width="45.777" height="45.777"/>
		<path fill="#FFFFFF" d="M422.803,1087.335l2.056-1.735v11.048c0,0.563,0.46,1.022,1.024,1.022h0.223
			c0.566,0,1.023-0.459,1.023-1.022v-3.909l2.164,1.748c0.444,0.348,1.087,0.268,1.438-0.173l0.136-0.181
			c0.348-0.445,0.271-1.087-0.176-1.434l-3.547-2.866l1.242-2.025v-4.631l0.571,0.874l0.005,0.012l0.211,3.907
			c0.021,0.413,0.379,0.727,0.792,0.701c0.412-0.025,0.725-0.379,0.7-0.793l-0.214-4.001c-0.004-0.065-0.02-0.127-0.038-0.185
			v-0.005c-0.047-0.39-2.364-3.571-2.364-3.571v0.005c-0.313-0.427-0.817-0.705-1.388-0.705c-0.948,0-1.718,0.77-1.718,1.719v2.439
			l-3.105,2.617c-0.315,0.264-0.357,0.735-0.089,1.053C422.016,1087.563,422.485,1087.6,422.803,1087.335 M426.126,1079.068
			c1.042,0,1.89-0.844,1.89-1.888c0-1.045-0.848-1.892-1.89-1.892c-1.043,0-1.89,0.847-1.89,1.892
			C424.236,1078.225,425.083,1079.068,426.126,1079.068 M441.937,1088.635v3.432h-6.791v2.447v0.978h-6.785v3.428h-6.787v2.45h8.988
			v-3.428h6.788v-3.428h6.787v-3.43h6.786v-2.449H441.937z M437.541,1080.397c0.412,0.05,0.784-0.246,0.832-0.653l0.506-3.976
			l0.003-0.053l0.516-0.73l-0.065,3.592l0.003,0.073c-0.007,0.349-0.018,0.85-0.05,1.121l-1.197,9.937
			c-0.052,0.562,0.362,1.063,0.924,1.115l0.221,0.02c0.563,0.052,1.063-0.359,1.117-0.923l1.143-9.514l0.032,0.032l2.725,2.43
			l-0.636,3.721c-0.08,0.561,0.308,1.078,0.869,1.159l0.218,0.032c0.562,0.08,1.078-0.307,1.16-0.868l0.712-4.192l0.003-0.01
			c0.099-0.696-0.34-1.105-0.34-1.105l-0.006,0.003l-0.069-0.07l-3.174-2.832c-0.074-0.064-0.159-0.11-0.243-0.15l0.02-1.121
			l2.118,1.819c0.315,0.266,0.787,0.226,1.053-0.09c0.268-0.318,0.226-0.787-0.087-1.054l-3.045-2.609l-0.005-0.003l0.047-2.556
			c0.018-0.932-0.728-1.7-1.659-1.719l-0.035-0.002c-0.563-0.01-1.063,0.258-1.378,0.676l-0.109,0.123l-2.104,2.971
			c-0.052,0.07-0.084,0.149-0.11,0.229h-0.002v0.019l-0.027,0.158c-0.007,0.047-0.018,0.106-0.027,0.177l-0.002,0.02l-0.033,0.259
			l0,0l-0.472,3.716C436.838,1079.977,437.131,1080.347,437.541,1080.397 M441.852,1070.773c1.043,0,1.888-0.847,1.888-1.89
			c0-1.045-0.844-1.891-1.888-1.891c-1.046,0-1.892,0.846-1.892,1.891C439.96,1069.927,440.806,1070.773,441.852,1070.773"/>
	</g>
	<g>
		<rect x="216.399" y="692.984" fill="#BCB8B3" width="45.777" height="45.777"/>
		<path fill="#FFFFFF" d="M225.845,719.027l2.057-1.734v11.047c0,0.564,0.459,1.023,1.023,1.023h0.223
			c0.563,0,1.023-0.459,1.023-1.023v-3.908l2.163,1.748c0.445,0.348,1.088,0.268,1.438-0.174l0.136-0.18
			c0.348-0.446,0.271-1.087-0.176-1.435l-3.546-2.866l1.242-2.023v-4.633l0.571,0.875l0.002,0.012l0.213,3.907
			c0.023,0.412,0.378,0.726,0.792,0.7c0.412-0.025,0.725-0.378,0.7-0.793l-0.214-4c-0.007-0.065-0.019-0.127-0.037-0.184v-0.006
			c-0.047-0.39-2.364-3.571-2.364-3.571v0.005c-0.313-0.427-0.817-0.705-1.389-0.705c-0.948,0-1.718,0.77-1.718,1.718v2.44
			l-3.107,2.617c-0.313,0.264-0.355,0.734-0.087,1.053C225.058,719.256,225.527,719.293,225.845,719.027 M229.167,710.762
			c1.043,0,1.89-0.845,1.89-1.888c0-1.045-0.847-1.893-1.89-1.893s-1.89,0.847-1.89,1.893
			C227.278,709.917,228.124,710.762,229.167,710.762 M244.978,720.328v3.43h-6.793v2.449v0.979h-6.782v3.427h-6.788v2.449h8.988
			v-3.428h6.788v-3.427h6.785v-3.43h6.787v-2.449H244.978z M240.582,712.09c0.412,0.049,0.782-0.246,0.832-0.653l0.507-3.976v-0.052
			l0.519-0.73l-0.064,3.591l0.002,0.074c-0.007,0.348-0.017,0.85-0.049,1.121l-1.197,9.936c-0.052,0.563,0.363,1.063,0.924,1.116
			l0.221,0.02c0.564,0.052,1.063-0.36,1.118-0.924l1.143-9.512l0.032,0.032l2.725,2.429l-0.636,3.72
			c-0.08,0.563,0.305,1.078,0.869,1.16l0.218,0.033c0.561,0.078,1.078-0.309,1.16-0.869l0.713-4.193l0.002-0.01
			c0.1-0.695-0.34-1.105-0.34-1.105l-0.004,0.003l-0.069-0.07l-3.177-2.832c-0.073-0.064-0.157-0.112-0.241-0.151l0.02-1.121
			l2.118,1.819c0.315,0.265,0.788,0.225,1.053-0.09c0.268-0.318,0.227-0.787-0.086-1.053l-3.045-2.61l-0.005-0.002l0.047-2.556
			c0.015-0.931-0.728-1.701-1.659-1.718l-0.035-0.002c-0.564-0.011-1.063,0.258-1.378,0.676l-0.109,0.124l-2.104,2.97
			c-0.052,0.07-0.084,0.149-0.109,0.229h-0.002v0.018l-0.027,0.159c-0.007,0.047-0.017,0.107-0.03,0.177v0.019l-0.032,0.259l0,0
			l-0.475,3.716C239.879,711.67,240.172,712.041,240.582,712.09 M244.893,702.466c1.043,0,1.888-0.847,1.888-1.89
			c0-1.045-0.845-1.889-1.888-1.889c-1.045,0-1.892,0.844-1.892,1.889C243.001,701.62,243.848,702.466,244.893,702.466"/>
	</g>
	<g>
		<rect x="1741.301" y="1144.205" fill="#BCB8B3" width="45.776" height="45.777"/>
		<path fill="#FFFFFF" d="M1750.748,1170.247l2.056-1.733v11.045c0,0.563,0.458,1.023,1.023,1.023h0.221
			c0.569,0,1.027-0.46,1.027-1.023v-3.906l2.159,1.745c0.448,0.348,1.086,0.271,1.441-0.173l0.133-0.178
			c0.35-0.445,0.274-1.087-0.174-1.434l-3.546-2.867l1.239-2.027v-4.631l0.573,0.874l0.005,0.012l0.21,3.91
			c0.022,0.411,0.382,0.725,0.794,0.701c0.41-0.025,0.725-0.381,0.701-0.796l-0.214-3.998c-0.005-0.065-0.021-0.13-0.041-0.188
			v-0.004c-0.044-0.39-2.366-3.569-2.366-3.569v0.003c-0.31-0.426-0.813-0.706-1.383-0.706c-0.948,0-1.719,0.772-1.719,1.722v2.439
			l-3.105,2.614c-0.319,0.265-0.359,0.738-0.088,1.053C1749.958,1170.473,1750.43,1170.512,1750.748,1170.247 M1754.07,1161.982
			c1.043,0,1.886-0.845,1.886-1.888c0-1.049-0.843-1.892-1.886-1.892c-1.046,0-1.896,0.843-1.896,1.892
			C1752.175,1161.138,1753.024,1161.982,1754.07,1161.982 M1769.881,1171.549v3.428h-6.789v2.448v0.979h-6.786v3.428h-6.793v2.448
			h8.993v-3.427h6.785v-3.428h6.791v-3.427h6.785v-2.449H1769.881z M1765.483,1163.309c0.413,0.049,0.787-0.243,0.831-0.65
			l0.507-3.979l0.005-0.049l0.518-0.73l-0.066,3.592v0.071c-0.007,0.347-0.014,0.85-0.051,1.12l-1.195,9.939
			c-0.049,0.562,0.363,1.061,0.924,1.111l0.225,0.021c0.558,0.055,1.061-0.36,1.116-0.923l1.143-9.513l0.03,0.032l2.728,2.432
			l-0.636,3.72c-0.079,0.56,0.308,1.078,0.869,1.157l0.219,0.032c0.558,0.083,1.077-0.308,1.157-0.865l0.713-4.193v-0.013
			c0.101-0.692-0.338-1.104-0.338-1.104l-0.006,0.005l-0.066-0.072l-3.175-2.829c-0.073-0.064-0.158-0.113-0.242-0.152l0.019-1.119
			l2.114,1.818c0.32,0.264,0.792,0.224,1.054-0.092c0.271-0.315,0.23-0.788-0.085-1.053l-3.045-2.61l-0.006-0.002l0.046-2.556
			c0.022-0.932-0.727-1.698-1.66-1.719h-0.034c-0.559-0.01-1.063,0.258-1.373,0.676l-0.112,0.12l-2.103,2.971
			c-0.05,0.071-0.085,0.151-0.109,0.231v-0.002v0.018l-0.032,0.157c-0.005,0.051-0.014,0.11-0.022,0.18l-0.006,0.018l-0.029,0.261
			l0,0l-0.472,3.715C1764.78,1162.89,1765.072,1163.259,1765.483,1163.309 M1769.797,1153.687c1.043,0,1.884-0.849,1.884-1.892
			s-0.841-1.891-1.884-1.891c-1.051,0-1.895,0.848-1.895,1.891S1768.746,1153.687,1769.797,1153.687"/>
	</g>
	<g>
		<rect x="2143.383" y="1118.724" fill="#BCB8B3" width="45.777" height="45.777"/>
		<path fill="#FFFFFF" d="M2152.832,1144.768l2.056-1.735v11.045c0,0.563,0.456,1.023,1.022,1.023h0.224
			c0.566,0,1.023-0.46,1.023-1.023v-3.907l2.161,1.746c0.446,0.348,1.087,0.271,1.441-0.173l0.133-0.178
			c0.348-0.445,0.273-1.087-0.174-1.434l-3.546-2.867l1.241-2.027v-4.631l0.572,0.874l0.004,0.012l0.208,3.91
			c0.025,0.412,0.384,0.725,0.796,0.701c0.411-0.025,0.725-0.381,0.699-0.795l-0.212-3.999c-0.005-0.065-0.021-0.13-0.041-0.188
			v-0.005c-0.044-0.389-2.364-3.568-2.364-3.568v0.003c-0.313-0.426-0.814-0.706-1.386-0.706c-0.949,0-1.718,0.772-1.718,1.722
			v2.439l-3.104,2.614c-0.317,0.267-0.358,0.738-0.09,1.053C2152.041,1144.993,2152.515,1145.03,2152.832,1144.768
			 M2156.154,1136.501c1.044,0,1.888-0.845,1.888-1.888c0-1.048-0.844-1.893-1.888-1.893s-1.893,0.845-1.893,1.893
			C2154.262,1135.656,2155.11,1136.501,2156.154,1136.501 M2171.965,1146.067v3.427h-6.79v2.449v0.979h-6.785v3.428h-6.79v2.449
			h8.991v-3.428h6.784v-3.428h6.789v-3.427h6.786v-2.449H2171.965z M2167.569,1137.827c0.412,0.05,0.784-0.243,0.829-0.65
			l0.507-3.979l0.005-0.049l0.516-0.73l-0.064,3.592v0.071c-0.004,0.347-0.016,0.85-0.049,1.12l-1.197,9.938
			c-0.051,0.563,0.362,1.062,0.924,1.114l0.224,0.019c0.561,0.055,1.063-0.359,1.118-0.923l1.142-9.513l0.029,0.032l2.728,2.432
			l-0.636,3.721c-0.08,0.559,0.309,1.077,0.869,1.156l0.218,0.032c0.562,0.083,1.078-0.308,1.157-0.865l0.716-4.193v-0.013
			c0.101-0.692-0.338-1.104-0.338-1.104l-0.005,0.006l-0.069-0.072l-3.174-2.83c-0.074-0.064-0.159-0.113-0.244-0.152l0.021-1.119
			l2.116,1.819c0.317,0.263,0.789,0.223,1.054-0.093c0.267-0.315,0.228-0.788-0.085-1.053l-3.046-2.61l-0.005-0.002l0.046-2.557
			c0.021-0.931-0.726-1.698-1.66-1.719h-0.034c-0.562-0.009-1.063,0.259-1.377,0.676l-0.107,0.121l-2.107,2.971
			c-0.049,0.073-0.084,0.151-0.109,0.231v-0.002v0.018l-0.028,0.158c-0.007,0.05-0.016,0.109-0.025,0.18l-0.006,0.017l-0.03,0.262
			l0,0l-0.471,3.716C2166.863,1137.407,2167.156,1137.777,2167.569,1137.827 M2171.88,1128.205c1.044,0,1.888-0.85,1.888-1.891
			c0-1.044-0.844-1.892-1.888-1.892c-1.048,0-1.892,0.848-1.892,1.892C2169.988,1127.355,2170.832,1128.205,2171.88,1128.205"/>
	</g>
	<g>
		<rect x="1415.654" y="883.687" fill="#3E3A39" width="45.775" height="45.778"/>
		<path fill="#FFFFFF" d="M1434.66,902.985c0-1.142-0.924-2.064-2.062-2.064c-1.14,0-2.064,0.923-2.064,2.064v3.543l4.126-2.43
			V902.985z M1432.599,900.533c1.138,0,2.062-0.925,2.062-2.063c0-1.139-0.924-2.063-2.062-2.063c-1.14,0-2.064,0.924-2.064,2.063
			C1430.534,899.608,1431.459,900.533,1432.599,900.533 M1438.887,896.845c1.14,0,2.062-0.924,2.062-2.062
			c0-1.14-0.922-2.063-2.062-2.063c-1.139,0-2.061,0.924-2.061,2.063C1436.826,895.921,1437.748,896.845,1438.887,896.845
			 M1440.948,899.294c0-1.138-0.922-2.062-2.062-2.062c-1.139,0-2.061,0.924-2.061,2.062v3.531l4.122-2.428V899.294z
			 M1452.05,907.035h-2.806c-0.187,0-0.365,0.05-0.524,0.141l-19.019,11.193h-4.664c-1.771,0-3.215-1.439-3.215-3.213
			c0-1.771,1.443-3.214,3.215-3.214h2.827c0.183,0,0.363-0.047,0.522-0.142l19.019-11.192h4.645c1.771,0,3.212,1.443,3.212,3.213
			C1455.262,905.595,1453.821,907.035,1452.05,907.035 M1452.05,898.546h-4.925c-0.184,0-0.364,0.051-0.523,0.145l-19.02,11.19
			h-2.545c-2.908,0-5.275,2.366-5.275,5.275c0,2.911,2.367,5.275,5.275,5.275h4.944c0.185,0,0.362-0.051,0.521-0.143l19.022-11.192
			h2.525c2.909,0,5.275-2.364,5.275-5.275C1457.325,900.912,1454.959,898.546,1452.05,898.546"/>
	</g>
	<g>
		<rect x="624.186" y="319.824" fill="#404041" width="45.777" height="45.777"/>
		<g>
			<path fill="#FFFFFF" d="M634.954,356.298h1.16v2.28h2.194v-2.28h1.151v5.799h-1.151v-2.508h-2.194v2.508h-1.16V356.298z"/>
			<path fill="#FFFFFF" d="M643.803,360.607h-1.882l-0.408,1.49h-1.174l1.854-5.799h1.364l1.867,5.799h-1.214L643.803,360.607z
				 M643.552,359.706l-0.174-0.634c-0.181-0.603-0.338-1.269-0.509-1.897h-0.032c-0.149,0.636-0.32,1.294-0.492,1.897l-0.174,0.634
				H643.552z"/>
			<path fill="#FFFFFF" d="M646.301,356.298h1.16v4.828h2.35v0.971h-3.509V356.298z"/>
			<path fill="#FFFFFF" d="M651.018,356.298h1.16v4.828h2.352v0.971h-3.512V356.298z"/>
			<path fill="#FFFFFF" d="M659.998,357.262h-2.61v-0.964h3.857v0.695c-1.349,1.646-1.53,2.832-1.624,5.104h-1.168
				C658.556,360.083,658.893,358.797,659.998,357.262z"/>
		</g>
		<g>
			<g>
				<g>
					<polygon fill="#FFFFFF" points="655.392,325.958 652.926,328.425 652.926,323.573 651.353,323.573 651.353,328.442 
						648.877,325.964 648.877,328.112 652.13,331.368 655.389,328.112 					"/>
					<polygon fill="#FFFFFF" points="639.427,328.981 641.89,326.518 641.89,331.368 643.465,331.368 643.465,326.498 
						645.944,328.979 645.944,326.831 642.686,323.573 639.43,326.831 					"/>
				</g>
				<g>
					<path fill="#FFFFFF" d="M655.665,333.129h-16.513c-1.028,0-1.855,0.833-1.855,1.86v16.503c0,1.028,0.827,1.86,1.855,1.86
						h16.513c1.025,0,1.855-0.832,1.855-1.86v-16.503C657.52,333.961,656.69,333.129,655.665,333.129 M656.253,351.493
						c0,0.328-0.271,0.594-0.588,0.594h-16.513c-0.318,0-0.586-0.266-0.586-0.594v-16.503c0-0.326,0.268-0.588,0.586-0.588h16.513
						c0.317,0,0.588,0.263,0.588,0.588V351.493z"/>
					<g>
						<g>
							<path fill="#FFFFFF" d="M645.187,343.465l-1.364-4.142c-0.184-0.539-0.67-0.509-0.78-0.509h-1.902
								c-0.11,0-0.599-0.03-0.78,0.509l-1.363,4.142c-0.072,0.217,0.035,0.452,0.244,0.529c0.203,0.074,0.429-0.038,0.502-0.253
								l1.097-3.328l0.279,1.632l-1.416,4.493c-0.074,0.283,0.044,0.417,0.288,0.417h1.061l0.39,2.717
								c0.055,0.4,0.291,0.648,0.651,0.648s0.596-0.249,0.65-0.648l0.388-2.717h1.063c0.246,0,0.362-0.134,0.288-0.417l-1.416-4.493
								l0.278-1.632l1.098,3.328c0.069,0.216,0.298,0.328,0.504,0.253C645.151,343.917,645.258,343.682,645.187,343.465
								 M642.092,338.593c0.594,0,1.075-0.482,1.075-1.076c0-0.591-0.481-1.073-1.075-1.073s-1.076,0.481-1.076,1.073
								C641.016,338.111,641.498,338.593,642.092,338.593"/>
						</g>
						<g>
							<path fill="#FFFFFF" d="M647.412,348.411c0.161,0,0.238,0.169,0.238,0.169s0.467,1.107,0.593,1.411
								c0.127,0.302,0.348,0.385,0.564,0.3c0.214-0.084,0.253-0.293,0.214-0.578c-0.037-0.288-0.385-2.129-0.397-2.754
								c-0.018-0.817,1.014-2.252,1.152-2.471c0.137-0.214,0.09-0.375-0.049-0.467c-0.174-0.114-0.343-0.109-0.514,0.117
								c-0.718,0.946-1.245,1.316-1.801,1.316c-0.559,0-1.085-0.371-1.804-1.316c-0.168-0.226-0.337-0.231-0.511-0.117
								c-0.139,0.092-0.189,0.253-0.05,0.467c0.137,0.219,1.17,1.654,1.152,2.471c-0.012,0.625-0.359,2.466-0.399,2.754
								c-0.038,0.285,0.002,0.494,0.216,0.578c0.213,0.085,0.437,0.002,0.563-0.3c0.126-0.304,0.594-1.411,0.594-1.411
								S647.248,348.411,647.412,348.411"/>
							<path fill="#FFFFFF" d="M648.326,344.226c0,0.504-0.41,0.914-0.914,0.914c-0.504,0-0.914-0.41-0.914-0.914
								c0-0.502,0.41-0.911,0.914-0.911C647.916,343.314,648.326,343.724,648.326,344.226"/>
						</g>
						<g>
							<path fill="#FFFFFF" d="M655.821,343.458l-1.366-4.135c-0.179-0.542-0.666-0.512-0.777-0.512h-1.9
								c-0.109,0-0.599-0.03-0.78,0.512l-1.361,4.135c-0.075,0.219,0.034,0.452,0.241,0.529c0.206,0.077,0.429-0.037,0.504-0.254
								l1.093-3.323l0.063,2.027l-1.001,7.187c-0.042,0.34,0.193,0.648,0.531,0.693c0.338,0.042,0.646-0.196,0.69-0.532l0.792-5.245
								c0.023-0.132,0.09-0.199,0.179-0.199c0.087,0,0.157,0.067,0.176,0.199l0.792,5.245c0.045,0.336,0.355,0.574,0.693,0.532
								c0.335-0.045,0.571-0.353,0.529-0.693l-1-7.187l0.062-2.027l1.095,3.323c0.072,0.217,0.298,0.331,0.502,0.254
								C655.786,343.91,655.893,343.677,655.821,343.458 M652.729,338.59c0.591,0,1.073-0.479,1.073-1.072
								c0-0.591-0.481-1.073-1.073-1.073c-0.594,0-1.073,0.481-1.073,1.073C651.656,338.111,652.135,338.59,652.729,338.59"/>
						</g>
					</g>
				</g>
			</g>
		</g>
	</g>
	<g>
		<rect x="817.173" y="891.11" fill="#404041" width="45.776" height="45.777"/>
		<g>
			<path fill="#FFFFFF" d="M827.941,927.582h1.162v2.282h2.193v-2.282h1.152v5.801h-1.152v-2.509h-2.193v2.509h-1.162V927.582z"/>
			<path fill="#FFFFFF" d="M836.791,931.893h-1.883l-0.407,1.49h-1.175l1.858-5.801h1.363l1.865,5.801h-1.217L836.791,931.893z
				 M836.54,930.991l-0.174-0.634c-0.179-0.603-0.338-1.271-0.509-1.897h-0.033c-0.149,0.637-0.32,1.295-0.491,1.897l-0.174,0.634
				H836.54z"/>
			<path fill="#FFFFFF" d="M839.289,927.582h1.16v4.83h2.352v0.971h-3.512V927.582z"/>
			<path fill="#FFFFFF" d="M844.005,927.582h1.162v4.83h2.35v0.971h-3.512V927.582z"/>
			<path fill="#FFFFFF" d="M850.321,932.717c1.576-1.41,2.508-2.5,2.508-3.395c0-0.589-0.321-0.941-0.869-0.941
				c-0.425,0-0.778,0.275-1.066,0.596l-0.628-0.626c0.534-0.565,1.05-0.879,1.843-0.879c1.098,0,1.826,0.706,1.826,1.788
				c0,1.051-0.869,2.179-1.928,3.215c0.292-0.032,0.673-0.063,0.939-0.063h1.264v0.971h-3.888V932.717z"/>
		</g>
		<g>
			<g>
				<g>
					<polygon fill="#FFFFFF" points="848.378,897.245 845.913,899.709 845.913,894.858 844.34,894.858 844.34,899.726 
						841.865,897.249 841.865,899.397 845.12,902.651 848.376,899.397 					"/>
					<polygon fill="#FFFFFF" points="832.415,900.268 834.878,897.801 834.878,902.651 836.453,902.651 836.453,897.783 
						838.931,900.263 838.931,898.116 835.675,894.858 832.419,898.116 					"/>
				</g>
				<g>
					<path fill="#FFFFFF" d="M848.651,904.414h-16.51c-1.028,0-1.858,0.832-1.858,1.859v16.505c0,1.028,0.83,1.859,1.858,1.859
						h16.51c1.026,0,1.858-0.831,1.858-1.859v-16.505C850.509,905.246,849.678,904.414,848.651,904.414 M849.243,922.778
						c0,0.327-0.271,0.592-0.592,0.592h-16.51c-0.321,0-0.589-0.265-0.589-0.592v-16.505c0-0.324,0.269-0.587,0.589-0.587h16.51
						c0.321,0,0.592,0.263,0.592,0.587V922.778z"/>
					<g>
						<g>
							<path fill="#FFFFFF" d="M838.174,914.752l-1.363-4.143c-0.182-0.539-0.668-0.509-0.78-0.509h-1.902
								c-0.109,0-0.598-0.03-0.78,0.509l-1.364,4.143c-0.072,0.215,0.035,0.451,0.242,0.528c0.206,0.074,0.432-0.037,0.503-0.256
								l1.098-3.327l0.278,1.634l-1.416,4.493c-0.074,0.282,0.045,0.414,0.289,0.414h1.063l0.388,2.718
								c0.055,0.402,0.29,0.649,0.65,0.649c0.36,0,0.596-0.247,0.651-0.649l0.39-2.718h1.061c0.245,0,0.363-0.132,0.288-0.414
								l-1.416-4.493l0.278-1.634l1.097,3.327c0.073,0.219,0.298,0.33,0.504,0.256C838.139,915.203,838.248,914.967,838.174,914.752
								 M835.079,909.879c0.596,0,1.076-0.481,1.076-1.076c0-0.593-0.479-1.072-1.076-1.072c-0.591,0-1.073,0.479-1.073,1.072
								C834.006,909.397,834.488,909.879,835.079,909.879"/>
						</g>
						<g>
							<path fill="#FFFFFF" d="M840.398,919.696c0.165,0,0.239,0.169,0.239,0.169s0.467,1.107,0.594,1.41
								c0.126,0.304,0.35,0.385,0.563,0.3c0.213-0.084,0.253-0.292,0.213-0.578c-0.037-0.287-0.385-2.128-0.397-2.754
								c-0.017-0.816,1.016-2.253,1.153-2.471c0.136-0.217,0.089-0.376-0.05-0.468c-0.173-0.117-0.342-0.109-0.511,0.117
								c-0.721,0.946-1.244,1.316-1.804,1.316c-0.558,0-1.082-0.37-1.803-1.316c-0.169-0.227-0.338-0.234-0.511-0.117
								c-0.139,0.092-0.189,0.251-0.05,0.468c0.137,0.218,1.17,1.654,1.153,2.471c-0.01,0.626-0.361,2.467-0.397,2.754
								c-0.04,0.286,0,0.494,0.213,0.578c0.214,0.085,0.437,0.004,0.563-0.3c0.127-0.303,0.594-1.41,0.594-1.41
								S840.237,919.696,840.398,919.696"/>
							<path fill="#FFFFFF" d="M841.313,915.512c0,0.504-0.41,0.914-0.915,0.914c-0.504,0-0.913-0.41-0.913-0.914
								c0-0.502,0.409-0.912,0.913-0.912C840.903,914.6,841.313,915.01,841.313,915.512"/>
						</g>
						<g>
							<path fill="#FFFFFF" d="M848.808,914.743l-1.363-4.138c-0.181-0.538-0.668-0.509-0.778-0.509h-1.902
								c-0.109,0-0.596-0.029-0.777,0.509l-1.363,4.138c-0.072,0.219,0.035,0.452,0.244,0.529c0.204,0.078,0.43-0.037,0.502-0.253
								l1.095-3.322l0.06,2.025l-0.998,7.188c-0.044,0.338,0.191,0.648,0.529,0.692c0.338,0.043,0.646-0.195,0.693-0.53l0.79-5.248
								c0.022-0.129,0.091-0.195,0.179-0.195c0.086,0,0.156,0.066,0.179,0.195l0.792,5.248c0.042,0.335,0.353,0.573,0.69,0.53
								c0.338-0.044,0.574-0.354,0.53-0.692l-1.001-7.188l0.063-2.025l1.095,3.322c0.072,0.216,0.298,0.331,0.501,0.253
								C848.774,915.195,848.88,914.962,848.808,914.743 M845.716,909.876c0.593,0,1.073-0.479,1.073-1.073
								c0-0.593-0.479-1.072-1.073-1.072c-0.594,0-1.073,0.479-1.073,1.072C844.644,909.397,845.122,909.876,845.716,909.876"/>
						</g>
					</g>
				</g>
			</g>
		</g>
	</g>
	<g>
		<rect x="1010.096" y="1146.748" fill="#404041" width="45.777" height="45.776"/>
		<g>
			<path fill="#FFFFFF" d="M1020.864,1183.222h1.157v2.28h2.196v-2.28h1.152v5.8h-1.152v-2.51h-2.196v2.51h-1.157V1183.222z"/>
			<path fill="#FFFFFF" d="M1029.711,1187.53h-1.882l-0.408,1.491h-1.175l1.858-5.8h1.363l1.865,5.8h-1.214L1029.711,1187.53z
				 M1029.46,1186.629l-0.174-0.633c-0.178-0.604-0.335-1.271-0.509-1.898h-0.029c-0.148,0.637-0.322,1.295-0.494,1.898
				l-0.174,0.633H1029.46z"/>
			<path fill="#FFFFFF" d="M1032.209,1183.222h1.16v4.825h2.353v0.975h-3.512V1183.222z"/>
			<path fill="#FFFFFF" d="M1036.929,1183.222h1.157v4.825h2.354v0.975h-3.511V1183.222z"/>
			<path fill="#FFFFFF" d="M1043.11,1188.323l0.539-0.729c0.345,0.336,0.77,0.594,1.293,0.594c0.589,0,0.989-0.288,0.989-0.807
				c0-0.571-0.338-0.925-1.599-0.925v-0.831c1.065,0,1.41-0.367,1.41-0.885c0-0.453-0.28-0.723-0.774-0.729
				c-0.415,0.007-0.753,0.203-1.099,0.519l-0.588-0.706c0.501-0.439,1.058-0.715,1.74-0.715c1.121,0,1.881,0.551,1.881,1.546
				c0,0.626-0.354,1.083-0.971,1.325v0.038c0.658,0.181,1.159,0.668,1.159,1.427c0,1.066-0.933,1.685-2.036,1.685
				C1044.135,1189.13,1043.517,1188.784,1043.11,1188.323z"/>
		</g>
		<g>
			<g>
				<g>
					<polygon fill="#FFFFFF" points="1041.299,1152.882 1038.835,1155.347 1038.835,1150.496 1037.261,1150.496 1037.261,1155.363 
						1034.784,1152.887 1034.784,1155.036 1038.041,1158.289 1041.299,1155.036 					"/>
					<polygon fill="#FFFFFF" points="1025.335,1155.905 1027.798,1153.438 1027.798,1158.289 1029.373,1158.289 1029.373,1153.422 
						1031.852,1155.899 1031.852,1153.755 1028.593,1150.496 1025.34,1153.755 					"/>
				</g>
				<g>
					<path fill="#FFFFFF" d="M1041.572,1160.053h-16.511c-1.028,0-1.857,0.832-1.857,1.856v16.507c0,1.028,0.829,1.86,1.857,1.86
						h16.511c1.023,0,1.858-0.832,1.858-1.86v-16.507C1043.43,1160.885,1042.595,1160.053,1041.572,1160.053 M1042.164,1178.416
						c0,0.327-0.271,0.591-0.591,0.591h-16.511c-0.317,0-0.588-0.264-0.588-0.591v-16.507c0-0.322,0.271-0.585,0.588-0.585h16.511
						c0.32,0,0.591,0.263,0.591,0.585V1178.416z"/>
					<g>
						<g>
							<path fill="#FFFFFF" d="M1031.097,1170.389l-1.366-4.142c-0.181-0.54-0.671-0.51-0.78-0.51h-1.902
								c-0.109,0-0.596-0.03-0.78,0.51l-1.363,4.142c-0.072,0.217,0.037,0.452,0.243,0.529c0.207,0.074,0.43-0.037,0.504-0.254
								l1.095-3.33l0.281,1.634l-1.418,4.493c-0.072,0.283,0.045,0.415,0.288,0.415h1.061l0.39,2.717
								c0.055,0.403,0.29,0.65,0.653,0.65c0.357,0,0.596-0.247,0.648-0.65l0.39-2.717h1.063c0.243,0,0.359-0.132,0.288-0.415
								l-1.418-4.493l0.281-1.634l1.095,3.33c0.072,0.217,0.298,0.328,0.504,0.254
								C1031.057,1170.841,1031.168,1170.605,1031.097,1170.389 M1028.002,1165.518c0.59,0,1.073-0.482,1.073-1.076
								s-0.482-1.073-1.073-1.073c-0.596,0-1.076,0.479-1.076,1.073S1027.406,1165.518,1028.002,1165.518"/>
						</g>
						<g>
							<path fill="#FFFFFF" d="M1033.322,1175.334c0.159,0,0.239,0.169,0.239,0.169s0.464,1.108,0.591,1.411
								c0.127,0.302,0.348,0.385,0.564,0.3s0.253-0.293,0.216-0.578c-0.04-0.289-0.388-2.129-0.4-2.754
								c-0.015-0.818,1.016-2.253,1.155-2.469c0.134-0.219,0.09-0.379-0.049-0.47c-0.177-0.117-0.346-0.109-0.515,0.116
								c-0.72,0.946-1.244,1.315-1.8,1.315c-0.561,0-1.085-0.369-1.803-1.315c-0.171-0.226-0.34-0.233-0.514-0.116
								c-0.139,0.091-0.187,0.251-0.05,0.47c0.137,0.216,1.17,1.65,1.155,2.469c-0.013,0.625-0.363,2.465-0.403,2.754
								c-0.038,0.285,0.002,0.493,0.219,0.578c0.213,0.085,0.434,0.002,0.561-0.3c0.127-0.303,0.594-1.411,0.594-1.411
								S1033.158,1175.334,1033.322,1175.334"/>
							<path fill="#FFFFFF" d="M1034.233,1171.148c0,0.504-0.41,0.915-0.912,0.915c-0.507,0-0.913-0.411-0.913-0.915
								c0-0.501,0.406-0.91,0.913-0.91C1033.823,1170.238,1034.233,1170.647,1034.233,1171.148"/>
						</g>
						<g>
							<path fill="#FFFFFF" d="M1041.729,1170.381l-1.363-4.137c-0.179-0.539-0.668-0.51-0.78-0.51h-1.897
								c-0.112,0-0.598-0.029-0.78,0.51l-1.363,4.137c-0.072,0.22,0.037,0.453,0.243,0.53c0.207,0.076,0.43-0.037,0.502-0.254
								l1.095-3.323l0.06,2.026l-0.998,7.188c-0.045,0.338,0.193,0.648,0.529,0.692c0.338,0.043,0.647-0.197,0.693-0.532
								l0.789-5.247c0.022-0.129,0.092-0.196,0.179-0.196c0.089,0,0.157,0.067,0.179,0.196l0.792,5.247
								c0.043,0.335,0.353,0.575,0.691,0.532c0.335-0.044,0.574-0.354,0.529-0.692l-0.998-7.188l0.059-2.026l1.096,3.323
								c0.072,0.217,0.298,0.33,0.503,0.254C1041.694,1170.834,1041.801,1170.601,1041.729,1170.381 M1038.637,1165.514
								c0.594,0,1.073-0.479,1.073-1.072s-0.479-1.073-1.073-1.073s-1.073,0.479-1.073,1.073S1038.043,1165.514,1038.637,1165.514"
								/>
						</g>
					</g>
				</g>
			</g>
		</g>
	</g>
	<g>
		<rect x="2080.813" y="1118.724" fill="#404041" width="45.777" height="45.777"/>
		<g>
			<path fill="#FFFFFF" d="M2091.581,1155.193h1.16v2.284h2.196v-2.284h1.151v5.803h-1.151v-2.508h-2.196v2.508h-1.16V1155.193z"/>
			<path fill="#FFFFFF" d="M2100.431,1159.507h-1.88l-0.407,1.489h-1.178l1.858-5.803h1.363l1.865,5.803h-1.214L2100.431,1159.507z
				 M2100.18,1158.604l-0.175-0.634c-0.178-0.604-0.337-1.271-0.508-1.897h-0.033c-0.146,0.637-0.319,1.294-0.491,1.897
				l-0.173,0.634H2100.18z"/>
			<path fill="#FFFFFF" d="M2102.93,1155.193h1.159v4.83h2.352v0.973h-3.511V1155.193z"/>
			<path fill="#FFFFFF" d="M2107.646,1155.193h1.159v4.83h2.352v0.973h-3.511V1155.193z"/>
			<path fill="#FFFFFF" d="M2113.829,1160.313l0.532-0.735c0.33,0.319,0.737,0.587,1.275,0.587c0.606,0,1.029-0.383,1.029-1.066
				c0-0.673-0.393-1.051-0.98-1.051c-0.346,0-0.532,0.088-0.867,0.306l-0.527-0.342l0.157-2.818h3.102v0.967h-2.106l-0.109,1.23
				c0.227-0.11,0.43-0.165,0.697-0.165c0.973,0,1.787,0.583,1.787,1.844c0,1.291-0.956,2.036-2.029,2.036
				C2114.87,1161.105,2114.259,1160.745,2113.829,1160.313z"/>
		</g>
		<g>
			<g>
				<g>
					<polygon fill="#FFFFFF" points="2112.019,1124.857 2109.553,1127.324 2109.553,1122.472 2107.98,1122.472 2107.98,1127.339 
						2105.505,1124.862 2105.505,1127.011 2108.761,1130.268 2112.018,1127.011 					"/>
					<polygon fill="#FFFFFF" points="2096.055,1127.881 2098.518,1125.417 2098.518,1130.268 2100.096,1130.268 2100.096,1125.396 
						2102.572,1127.876 2102.572,1125.729 2099.313,1122.472 2096.058,1125.729 					"/>
				</g>
				<g>
					<path fill="#FFFFFF" d="M2112.293,1132.027h-16.512c-1.03,0-1.855,0.833-1.855,1.861v16.503c0,1.028,0.825,1.86,1.855,1.86
						h16.512c1.025,0,1.856-0.832,1.856-1.86v-16.503C2114.149,1132.86,2113.318,1132.027,2112.293,1132.027 M2112.88,1150.392
						c0,0.328-0.267,0.591-0.587,0.591h-16.512c-0.32,0-0.588-0.263-0.588-0.591v-16.503c0-0.326,0.268-0.589,0.588-0.589h16.512
						c0.32,0,0.587,0.263,0.587,0.589V1150.392z"/>
					<g>
						<g>
							<path fill="#FFFFFF" d="M2101.814,1142.365l-1.363-4.143c-0.182-0.539-0.672-0.509-0.781-0.509h-1.9
								c-0.11,0-0.6-0.03-0.781,0.509l-1.363,4.143c-0.072,0.216,0.037,0.451,0.242,0.527c0.205,0.075,0.434-0.037,0.503-0.252
								l1.098-3.331l0.278,1.635l-1.416,4.492c-0.074,0.283,0.045,0.415,0.288,0.415h1.063l0.389,2.717
								c0.055,0.402,0.292,0.651,0.65,0.651c0.36,0,0.598-0.249,0.65-0.651l0.391-2.717h1.061c0.245,0,0.362-0.132,0.287-0.415
								l-1.416-4.492l0.278-1.635l1.099,3.331c0.071,0.215,0.297,0.327,0.505,0.252
								C2101.779,1142.816,2101.889,1142.581,2101.814,1142.365 M2098.72,1137.491c0.594,0,1.075-0.48,1.075-1.075
								c0-0.594-0.481-1.072-1.075-1.072s-1.073,0.479-1.073,1.072C2097.646,1137.011,2098.126,1137.491,2098.72,1137.491"/>
						</g>
						<g>
							<path fill="#FFFFFF" d="M2104.04,1147.309c0.16,0,0.237,0.169,0.237,0.169s0.468,1.107,0.595,1.411
								c0.125,0.304,0.347,0.386,0.563,0.301c0.213-0.084,0.254-0.294,0.213-0.579c-0.036-0.288-0.384-2.129-0.397-2.754
								c-0.016-0.817,1.016-2.252,1.153-2.471c0.14-0.215,0.09-0.375-0.05-0.468c-0.173-0.117-0.343-0.108-0.512,0.118
								c-0.72,0.945-1.244,1.315-1.802,1.315c-0.56,0-1.085-0.37-1.804-1.315c-0.169-0.227-0.338-0.235-0.512-0.118
								c-0.139,0.093-0.189,0.253-0.051,0.468c0.138,0.219,1.171,1.653,1.153,2.471c-0.009,0.625-0.36,2.466-0.399,2.754
								c-0.038,0.285,0.002,0.495,0.215,0.579c0.215,0.085,0.438,0.003,0.564-0.301c0.127-0.304,0.594-1.411,0.594-1.411
								S2103.877,1147.309,2104.04,1147.309"/>
							<path fill="#FFFFFF" d="M2104.953,1143.125c0,0.503-0.41,0.914-0.913,0.914c-0.504,0-0.915-0.411-0.915-0.914
								c0-0.502,0.411-0.913,0.915-0.913C2104.543,1142.212,2104.953,1142.623,2104.953,1143.125"/>
						</g>
						<g>
							<path fill="#FFFFFF" d="M2112.448,1142.358l-1.363-4.139c-0.178-0.538-0.668-0.509-0.78-0.509h-1.899
								c-0.108,0-0.596-0.029-0.78,0.509l-1.361,4.139c-0.074,0.217,0.035,0.451,0.245,0.527c0.203,0.077,0.429-0.037,0.5-0.253
								l1.094-3.323l0.062,2.027l-0.998,7.187c-0.045,0.338,0.191,0.648,0.529,0.693c0.338,0.042,0.646-0.195,0.689-0.531
								l0.796-5.248c0.021-0.129,0.089-0.196,0.176-0.196s0.157,0.067,0.179,0.196l0.791,5.248c0.043,0.336,0.354,0.573,0.691,0.531
								c0.336-0.045,0.574-0.355,0.53-0.693l-0.999-7.187l0.059-2.027l1.096,3.323c0.072,0.216,0.299,0.33,0.503,0.253
								C2112.414,1142.81,2112.521,1142.575,2112.448,1142.358 M2109.356,1137.489c0.593,0,1.073-0.479,1.073-1.073
								c0-0.594-0.48-1.072-1.073-1.072c-0.594,0-1.073,0.479-1.073,1.072C2108.283,1137.011,2108.763,1137.489,2109.356,1137.489"
								/>
						</g>
					</g>
				</g>
			</g>
		</g>
	</g>
	<polygon fill="#DBD5CC" points="1804.506,1198.104 1951.216,1198.222 2062.407,1192.652 1867.876,1169.403 	"/>
	<g>
		<rect x="1533.889" y="604.443" fill="#404041" width="45.776" height="45.776"/>
		<g>
			<path fill="#FFFFFF" d="M1544.656,640.914h1.163v2.282h2.192v-2.282h1.152v5.801h-1.152v-2.508h-2.192v2.508h-1.163V640.914z"/>
			<path fill="#FFFFFF" d="M1553.506,645.226h-1.88l-0.407,1.49h-1.178l1.858-5.801h1.364l1.864,5.801h-1.214L1553.506,645.226z
				 M1553.255,644.324l-0.172-0.633c-0.181-0.604-0.34-1.272-0.511-1.897h-0.032c-0.147,0.636-0.318,1.293-0.491,1.897l-0.172,0.633
				H1553.255z"/>
			<path fill="#FFFFFF" d="M1556.007,640.914h1.157v4.828h2.352v0.974h-3.509V640.914z"/>
			<path fill="#FFFFFF" d="M1560.722,640.914h1.161v4.828h2.35v0.974h-3.511V640.914z"/>
			<path fill="#FFFFFF" d="M1570.298,642.153c-0.204-0.236-0.555-0.422-0.895-0.422c-0.665,0-1.213,0.502-1.263,1.95
				c0.316-0.382,0.817-0.619,1.193-0.619c0.974,0,1.663,0.582,1.663,1.826c0,1.192-0.831,1.938-1.82,1.938
				c-1.104,0-2.082-0.887-2.082-2.931c0-2.163,1.07-3.089,2.239-3.089c0.706,0,1.222,0.298,1.574,0.658L1570.298,642.153z
				 M1569.938,644.888c0-0.688-0.32-1.011-0.822-1.011c-0.313,0-0.658,0.166-0.95,0.614c0.11,1.058,0.503,1.465,0.987,1.465
				C1569.585,645.956,1569.938,645.596,1569.938,644.888z"/>
		</g>
		<g>
			<g>
				<g>
					<polygon fill="#FFFFFF" points="1565.097,610.578 1562.628,613.041 1562.628,608.191 1561.057,608.191 1561.057,613.058 
						1558.58,610.583 1558.58,612.73 1561.836,615.986 1565.092,612.73 					"/>
					<polygon fill="#FFFFFF" points="1549.13,613.6 1551.597,611.134 1551.597,615.986 1553.17,615.986 1553.17,611.116 
						1555.647,613.595 1555.647,611.449 1552.391,608.191 1549.135,611.449 					"/>
				</g>
				<g>
					<path fill="#FFFFFF" d="M1565.37,617.747h-16.514c-1.028,0-1.854,0.833-1.854,1.86v16.504c0,1.027,0.826,1.859,1.854,1.859
						h16.514c1.023,0,1.854-0.832,1.854-1.859v-16.504C1567.225,618.58,1566.394,617.747,1565.37,617.747 M1565.957,636.111
						c0,0.328-0.269,0.591-0.587,0.591h-16.514c-0.317,0-0.588-0.263-0.588-0.591v-16.504c0-0.325,0.271-0.588,0.588-0.588h16.514
						c0.318,0,0.587,0.264,0.587,0.588V636.111z"/>
					<g>
						<g>
							<path fill="#FFFFFF" d="M1554.89,628.084l-1.361-4.143c-0.183-0.539-0.671-0.509-0.782-0.509h-1.903
								c-0.109,0-0.598-0.03-0.779,0.509l-1.363,4.143c-0.069,0.216,0.037,0.452,0.243,0.529c0.203,0.075,0.433-0.038,0.502-0.253
								l1.098-3.331l0.281,1.634l-1.419,4.493c-0.071,0.283,0.045,0.416,0.288,0.416h1.063l0.389,2.716
								c0.057,0.403,0.292,0.651,0.65,0.651c0.36,0,0.598-0.248,0.652-0.651l0.389-2.716h1.06c0.246,0,0.363-0.132,0.288-0.416
								l-1.416-4.493l0.279-1.634l1.098,3.331c0.071,0.215,0.297,0.328,0.505,0.253
								C1554.854,628.536,1554.965,628.3,1554.89,628.084 M1551.795,623.211c0.596,0,1.075-0.481,1.075-1.075
								c0-0.594-0.479-1.073-1.075-1.073c-0.591,0-1.073,0.479-1.073,1.073C1550.722,622.729,1551.204,623.211,1551.795,623.211"/>
						</g>
						<g>
							<path fill="#FFFFFF" d="M1557.115,633.028c0.163,0,0.24,0.169,0.24,0.169s0.464,1.108,0.592,1.411
								c0.125,0.303,0.35,0.385,0.563,0.3c0.212-0.084,0.253-0.293,0.212-0.579c-0.035-0.288-0.383-2.128-0.396-2.754
								c-0.014-0.818,1.017-2.253,1.152-2.471c0.14-0.216,0.092-0.375-0.047-0.467c-0.176-0.117-0.346-0.109-0.515,0.116
								c-0.72,0.947-1.244,1.317-1.802,1.317c-0.56,0-1.084-0.37-1.801-1.317c-0.172-0.226-0.341-0.233-0.515-0.116
								c-0.139,0.091-0.188,0.25-0.05,0.467c0.137,0.218,1.17,1.653,1.155,2.471c-0.013,0.625-0.363,2.466-0.402,2.754
								c-0.038,0.285,0.002,0.494,0.216,0.579s0.438,0.002,0.563-0.3c0.128-0.303,0.594-1.411,0.594-1.411
								S1556.953,633.028,1557.115,633.028"/>
							<path fill="#FFFFFF" d="M1558.029,628.844c0,0.505-0.411,0.914-0.914,0.914c-0.504,0-0.913-0.409-0.913-0.914
								c0-0.501,0.409-0.911,0.913-0.911C1557.618,627.933,1558.029,628.343,1558.029,628.844"/>
						</g>
						<g>
							<path fill="#FFFFFF" d="M1565.523,628.076l-1.363-4.137c-0.181-0.539-0.669-0.509-0.776-0.509h-1.903
								c-0.108,0-0.597-0.03-0.777,0.509l-1.363,4.137c-0.071,0.219,0.035,0.453,0.244,0.529c0.203,0.077,0.43-0.037,0.5-0.253
								l1.096-3.323l0.06,2.026l-0.998,7.188c-0.045,0.338,0.192,0.648,0.528,0.693c0.338,0.042,0.648-0.196,0.691-0.532
								l0.795-5.248c0.021-0.129,0.089-0.196,0.176-0.196c0.089,0,0.157,0.067,0.18,0.196l0.791,5.248
								c0.043,0.336,0.354,0.574,0.691,0.532c0.338-0.045,0.573-0.355,0.528-0.693l-0.998-7.188l0.06-2.026l1.096,3.323
								c0.07,0.216,0.298,0.33,0.502,0.253C1565.489,628.529,1565.597,628.295,1565.523,628.076 M1562.432,623.209
								c0.594,0,1.075-0.479,1.075-1.073c0-0.594-0.481-1.073-1.075-1.073s-1.072,0.479-1.072,1.073
								C1561.359,622.729,1561.838,623.209,1562.432,623.209"/>
						</g>
					</g>
				</g>
			</g>
		</g>
	</g>
	<g>
		<rect x="640.669" y="778.595" fill="#404041" width="45.776" height="45.775"/>
		<g>
			<path fill="#FFFFFF" d="M651.435,814.56h1.162v2.282h2.193v-2.282h1.152v5.802h-1.152v-2.509h-2.193v2.509h-1.162V814.56z"/>
			<path fill="#FFFFFF" d="M660.284,818.871h-1.88l-0.408,1.49h-1.177l1.858-5.802h1.364l1.865,5.802h-1.214L660.284,818.871z
				 M660.033,817.97l-0.171-0.633c-0.181-0.604-0.338-1.271-0.509-1.897h-0.032c-0.149,0.636-0.323,1.294-0.495,1.897l-0.173,0.633
				H660.033z"/>
			<path fill="#FFFFFF" d="M662.785,814.56h1.158v4.828h2.352v0.974h-3.51V814.56z"/>
			<path fill="#FFFFFF" d="M667.501,814.56h1.16v4.828h2.352v0.974h-3.512V814.56z"/>
			<path fill="#FFFFFF" d="M674.122,819.428h1.245v-3.668h-1.048v-0.713c0.579-0.11,0.979-0.258,1.346-0.487h0.854v4.868h1.09v0.934
				h-3.487V819.428z"/>
		</g>
		<g>
			<path fill="#FFFFFF" d="M656.929,797.711l3.521-2.07v-0.952c0-0.974-0.785-1.761-1.761-1.761c-0.966,0-1.76,0.787-1.76,1.761
				V797.711z"/>
			<path fill="#FFFFFF" d="M658.689,792.596c0.976,0,1.761-0.791,1.761-1.759c0-0.977-0.785-1.761-1.761-1.761
				c-0.966,0-1.76,0.784-1.76,1.761C656.929,791.805,657.723,792.596,658.689,792.596"/>
			<path fill="#FFFFFF" d="M675.292,790.895h-4.203c-0.154,0-0.308,0.044-0.446,0.121l-16.23,9.552h-2.167
				c-2.487,0-4.506,2.017-4.506,4.502c0,2.487,2.019,4.508,4.506,4.508h4.222c0.148,0,0.306-0.04,0.442-0.124l16.222-9.552h2.161
				c2.481,0,4.5-2.021,4.5-4.503C679.792,792.923,677.773,790.895,675.292,790.895 M675.292,798.143h-2.397
				c-0.151,0-0.305,0.046-0.444,0.12l-16.23,9.557h-3.976c-1.513,0-2.747-1.232-2.747-2.75c0-1.505,1.234-2.733,2.747-2.733h2.409
				c0.156,0,0.313-0.043,0.444-0.124l16.23-9.553h3.964c1.518,0,2.742,1.229,2.742,2.739
				C678.034,796.917,676.81,798.143,675.292,798.143"/>
			<path fill="#FFFFFF" d="M662.298,794.555l3.521-2.071v-0.946c0-0.971-0.79-1.759-1.761-1.759c-0.974,0-1.76,0.788-1.76,1.759
				V794.555z"/>
			<path fill="#FFFFFF" d="M664.059,789.44c0.971,0,1.761-0.787,1.761-1.753s-0.79-1.759-1.761-1.759
				c-0.974,0-1.76,0.793-1.76,1.759S663.085,789.44,664.059,789.44"/>
		</g>
	</g>
	<g>
		<g>
			<path fill="#3E3A39" d="M571.018,762.733c-1.739-0.688-2.951-1.948-3.708-3.458c-0.755,1.785-2.059,3.296-4.006,4.121
				l-1.604-2.336c2.955-1.281,4.098-3.891,4.098-6.272v-2.448h2.911v2.448c0,2.267,1.142,4.533,3.914,5.654L571.018,762.733z
				 M580.063,768.227c0,2.474-2.817,3.96-7.234,3.96c-4.444,0-7.28-1.486-7.28-3.96c0-2.449,2.836-3.937,7.28-3.937
				C577.246,764.29,580.063,765.777,580.063,768.227z M577.04,768.227c0-1.121-1.513-1.672-4.212-1.672
				c-2.75,0-4.26,0.551-4.26,1.672c0,1.122,1.51,1.671,4.26,1.671C575.527,769.897,577.04,769.349,577.04,768.227z M575.46,763.304
				h-2.815v-11.836h2.815v4.74h1.649v-5.129h2.861v12.891h-2.861v-5.335h-1.649V763.304z"/>
			<path fill="#3E3A39" d="M596.036,762.481c-4.42,0.777-9.295,0.822-12.934,0.822l-0.299-2.059c1.51,0,3.204,0,5.012-0.048v-0.961
				c-2.265-0.275-3.641-1.236-3.641-2.68c0-1.716,2.017-2.747,5.154-2.747s5.129,1.031,5.129,2.747c0,1.443-1.376,2.404-3.616,2.68
				v0.847c1.693-0.092,3.387-0.228,4.99-0.411L596.036,762.481z M595.304,754.397h-11.973v-1.991h4.485v-1.487h3.025v1.487h4.462
				V754.397z M588.619,770.012h11.883v1.994H585.62v-4.855h11.171v-0.916h-11.196v-1.991h14.171v4.764h-11.148V770.012z
				 M589.329,758.495c1.443,0,2.268-0.319,2.268-0.938c0-0.593-0.824-0.891-2.268-0.891c-1.443,0-2.29,0.298-2.29,0.891
				C587.039,758.176,587.886,758.495,589.329,758.495z M602.424,756.047v2.474h-2.658v4.967h-3.02v-12.408h3.02v4.968H602.424z"/>
			<path fill="#3E3A39" d="M616.201,763.352c-3.917,0.663-8.449,0.732-11.77,0.732l-0.317-2.451c0.685,0,1.418,0,2.195,0v-6.639
				h-1.669v-2.404h11.126v2.404h-1.671v6.343c0.663-0.047,1.304-0.116,1.922-0.184L616.201,763.352z M622.223,769.396v2.404h-14.38
				v-6.345h3.022v3.94H622.223z M609.217,761.565c0.643,0,1.304-0.022,1.97-0.048v-6.523h-1.97V761.565z M618.719,761.451h-2.565
				v-2.429h2.565v-1.831h-2.565v-2.427h2.565v-3.686h3.023v15.546h-3.023V761.451z"/>
			<path fill="#3E3A39" d="M625.261,765.479c3.708,0,8.884-0.023,13.324-0.686l0.184,2.173c-4.535,0.917-9.478,0.964-13.119,0.964
				L625.261,765.479z M637.761,757.674c0,3.045-2.519,5.195-5.817,5.195c-3.295,0-5.791-2.15-5.791-5.195
				c0-3.022,2.496-5.198,5.791-5.198C635.242,752.476,637.761,754.651,637.761,757.674z M629.083,757.674
				c0,1.647,1.237,2.61,2.86,2.61c1.627,0,2.864-0.963,2.864-2.61c0-1.648-1.236-2.611-2.864-2.611
				C630.32,755.063,629.083,756.025,629.083,757.674z M642.752,751.055v21.155h-3.022v-21.155H642.752z"/>
			<path fill="#3E3A39" d="M654.4,755.771c0,3.917,1.668,7.765,5.24,9.297l-1.716,2.451c-2.426-1.1-4.051-3.184-4.99-5.769
				c-0.938,2.813-2.657,5.08-5.176,6.271l-1.807-2.494c3.686-1.579,5.424-5.655,5.424-9.756v-3.066h3.025V755.771z M663.693,751.055
				v21.155h-3.02v-21.155H663.693z"/>
			<path fill="#3E3A39" d="M678.342,761.543c-2.221-0.711-3.78-2.108-4.672-3.869c-0.938,1.967-2.587,3.523-4.992,4.279
				l-1.557-2.357c3.504-1.053,4.97-3.641,4.97-6.317v-1.514h3.045v1.514c0,2.492,1.442,4.944,4.738,5.95L678.342,761.543z
				 M685.506,769.577v2.359h-14.468v-5.77h10.897V765h-10.92v-2.314h13.897v5.657h-10.9v1.234H685.506z M681.888,756.574h-3.844
				v-2.405h3.844v-3.09h3.025v10.715h-3.025V756.574z"/>
		</g>
	</g>
	<g>
		<g>
			<path fill="#3E3A39" d="M1448.136,706.202v2.382h-19.093v-2.382h8.059v-1.625h-5.699v-6.318h3.02v3.936h11.52v2.382h-5.817v1.625
				H1448.136z M1434.263,716.621h12.224v2.289h-15.269v-5.702h11.631v-1.145h-11.655v-2.265h14.7v5.519h-11.631V716.621z"/>
			<path fill="#3E3A39" d="M1453.923,711.606c3-0.044,5.493-0.206,8.22-0.663l0.299,2.496c-3.184,0.571-6.07,0.686-9.73,0.686
				h-1.811v-14.126h9.844v2.451h-6.821V711.606z M1469.674,708.333h-3.067v10.851h-3.023v-21.13h3.023v7.783h3.067V708.333z"/>
			<path fill="#3E3A39" d="M1482.055,700.205c0,6.32-2.405,11.744-9.41,15.293l-1.694-2.313c4.899-2.519,7.511-5.861,8.059-10.53
				h-6.892v-2.451H1482.055z M1490.617,708.584h-2.953v10.51h-3.022v-21.065h3.022v8.06h2.953V708.584z"/>
			<path fill="#3E3A39" d="M1503.042,698.51h2.817v19.689h-2.817v-9.66h-3.298c-1.188,2.404-3.113,4.487-6.09,6.227l-1.717-2.129
				c4.213-2.518,6.067-5.563,6.433-9.686h-5.264v-2.404h8.264c0,1.992-0.183,3.847-0.687,5.565h2.358V698.51z M1510.345,698.028
				v21.088h-2.861v-21.088H1510.345z"/>
		</g>
	</g>
	<g>
		<g>
			<path fill="#3E3A39" d="M1428.106,813.381c-0.479,2.425-2.313,4.053-4.694,4.053c-2.794,0-4.83-2.199-4.83-5.336
				c0-3.113,2.036-5.313,4.83-5.313c2.427,0,4.281,1.694,4.717,4.168h1.306v-5.334h2.816v14.7h-2.816v-6.938H1428.106z
				 M1423.412,814.822c1.237,0,2.128-1.008,2.128-2.725c0-1.74-0.891-2.724-2.128-2.724c-1.234,0-2.128,0.983-2.128,2.724
				C1421.284,813.814,1422.178,814.822,1423.412,814.822z M1437.012,823.569v2.404h-14.72v-7.03h3.02v4.626H1437.012z
				 M1436.485,820.935h-2.86v-15.681h2.86V820.935z"/>
			<path fill="#3E3A39" d="M1446.257,810.839c0,3.527,1.03,7.075,4.075,8.861l-1.764,2.197c-1.878-1.099-3.07-2.93-3.755-5.152
				c-0.733,2.403-1.97,4.465-3.87,5.655l-1.785-2.221c3.067-1.944,4.167-5.722,4.167-9.341v-1.03h-3.391v-2.448h9.388v2.448h-3.065
				V810.839z M1450.535,805.597h2.816v19.781h-2.816v-10.485h-2.677v-2.451h2.677V805.597z M1457.658,805.229v21.088h-2.861v-21.088
				H1457.658z"/>
			<path fill="#3E3A39" d="M1464.84,818.99c3.205-0.022,5.861-0.184,8.837-0.688l0.321,2.451c-3.437,0.594-6.526,0.732-10.351,0.732
				h-1.899v-8.678h6.848v-3.365h-6.869v-2.403h9.959v8.15h-6.846V818.99z M1478.164,805.229v21.155h-3.021v-21.155H1478.164z"/>
			<path fill="#3E3A39" d="M1485.759,818.92c2.633-0.044,5.358-0.272,8.175-0.823l0.342,2.473c-3.412,0.686-6.616,0.87-9.73,0.87
				h-1.785v-13.943h2.999V818.92z M1499.382,805.229v21.181h-3.023v-12.205h-5.677v-2.448h5.677v-6.527H1499.382z"/>
			<path fill="#3E3A39" d="M1521.836,821.325v2.451h-19.096v-2.451H1521.836z M1519.888,817.709
				c-3.663-0.733-6.364-2.772-7.716-5.449c-1.352,2.677-4.028,4.739-7.691,5.449l-1.281-2.519c4.739-0.824,7.371-4.167,7.371-7.189
				v-1.514h3.229v1.514c0,3.089,2.611,6.365,7.374,7.189L1519.888,817.709z"/>
		</g>
	</g>
	<g>
		<path fill="#3E3A39" d="M1782.152,835.777l-15.42-15.421c-8.345-8.345-22.002-8.345-30.351,0l-15.417,15.421
			c-8.348,8.344-8.348,22.006,0,30.351l15.417,15.421c8.349,8.345,22.006,8.345,30.351,0l15.42-15.421
			C1790.497,857.783,1790.497,844.121,1782.152,835.777z M1742.511,873.601c-0.034,0.003-0.068,0.003-0.099,0.003
			c-1.224,0-2.224-0.959-2.274-2.183c-0.024-0.61,0.189-1.195,0.599-1.64c0.415-0.452,0.977-0.71,1.585-0.735
			c1.254-0.062,2.322,0.927,2.375,2.183C1744.744,872.487,1743.764,873.549,1742.511,873.601z M1769.9,864.079
			c-3.127,4.976-7.256,8.467-11.047,9.344c-0.01,0.005-0.053,0.012-0.093,0.022c-0.696,0.123-1.379,0.19-2.027,0.19
			c-2.444,0-4.171-0.928-5.396-1.743c-1.216-0.803-2.348-1.872-3.373-3.187c-6.52-8.369-6.962-24.063-6.994-25.826
			c-0.071-4.178,0.529-9.835,3.795-13.071c1.592-1.582,3.585-2.384,5.929-2.384l0.381,0.002c2.346,0,4.344,0.8,5.935,2.382
			c3.264,3.236,3.861,8.894,3.793,13.071c-0.075,4.349-0.872,12.78-5.384,20.335c-0.368,0.613-1.042,0.996-1.759,0.996
			c-0.368,0-0.73-0.1-1.044-0.288c-0.966-0.576-1.285-1.835-0.71-2.804c3.159-5.288,4.684-11.108,4.806-18.309
			c0.082-4.776-0.84-8.362-2.586-10.102c-0.809-0.805-1.811-1.196-3.06-1.196h-0.356c-1.254,0-2.257,0.392-3.063,1.196
			c-1.749,1.739-2.665,5.325-2.586,10.099c0.1,5.888,1.502,17.438,6.132,23.385c0.75,0.962,1.558,1.733,2.398,2.285
			c0.813,0.541,1.729,1.067,3.16,1.067c0.384,0,0.802-0.039,1.233-0.118c2.658-0.636,5.98-3.595,8.455-7.523
			c0.38-0.601,1.025-0.958,1.733-0.958c0.382,0,0.76,0.106,1.087,0.315c0.462,0.288,0.783,0.742,0.904,1.273
			C1770.285,863.069,1770.194,863.617,1769.9,864.079z"/>
		<g>
			<path fill="#3E3A39" d="M1814.582,859.505c0,0.528,0.09,0.961,0.277,1.283c0.188,0.327,0.618,0.487,1.29,0.487h13.348v3.14
				h-19.447c-1.068,0-1.89-0.28-2.474-0.835c-0.578-0.554-0.869-1.431-0.869-2.615v-22.472h7.875V859.505z"/>
			<path fill="#3E3A39" d="M1862.91,851.453c0,1.857-0.367,3.64-1.111,5.352c-0.749,1.704-1.813,3.202-3.211,4.49
				c-1.395,1.289-3.098,2.322-5.119,3.088c-2.022,0.764-4.32,1.146-6.9,1.146c-2.622,0-4.946-0.383-6.969-1.146
				c-2.02-0.766-3.721-1.799-5.106-3.088c-1.38-1.288-2.435-2.786-3.153-4.49c-0.715-1.712-1.078-3.494-1.078-5.352
				c0-1.853,0.343-3.645,1.03-5.348c0.683-1.706,1.71-3.206,3.082-4.497c1.37-1.29,3.071-2.317,5.102-3.087
				c2.036-0.766,4.397-1.146,7.093-1.146c2.694,0,5.066,0.38,7.108,1.146c2.046,0.77,3.75,1.797,5.124,3.087
				c1.37,1.291,2.398,2.791,3.08,4.497C1862.572,847.809,1862.91,849.601,1862.91,851.453z M1846.568,840.272
				c-1.233,0-2.375,0.296-3.433,0.886c-1.056,0.594-1.967,1.396-2.735,2.42c-0.766,1.022-1.369,2.207-1.813,3.554
				c-0.438,1.349-0.659,2.792-0.659,4.321c0,1.532,0.221,2.97,0.659,4.318c0.444,1.347,1.048,2.528,1.813,3.537
				c0.769,1.012,1.68,1.807,2.735,2.387c1.058,0.584,2.199,0.871,3.433,0.871c1.232,0,2.374-0.287,3.435-0.871
				c1.057-0.58,1.97-1.375,2.732-2.387c0.767-1.009,1.373-2.19,1.813-3.537c0.439-1.349,0.663-2.786,0.663-4.318
				c0-1.529-0.224-2.973-0.663-4.321c-0.439-1.347-1.046-2.531-1.813-3.554c-0.763-1.023-1.676-1.826-2.732-2.42
				C1848.942,840.568,1847.801,840.272,1846.568,840.272z"/>
			<path fill="#3E3A39" d="M1881.725,841.591v22.824h-7.937v-22.824h-10.183v-3.098h28.299v3.098H1881.725z"/>
			<path fill="#3E3A39" d="M1912.527,841.591v22.824h-7.94v-22.824h-10.18v-3.098h28.3v3.098H1912.527z"/>
			<path fill="#3E3A39" d="M1950.367,849.081v3.069h-16.446v7.319c0,0.257,0.015,0.497,0.039,0.728
				c0.021,0.238,0.095,0.427,0.224,0.591c0.126,0.164,0.315,0.297,0.559,0.388c0.246,0.09,0.581,0.14,1.025,0.14h14.844v3.1h-20.627
				c-0.558,0-1.075-0.032-1.548-0.103c-0.479-0.071-0.899-0.235-1.259-0.489c-0.358-0.254-0.639-0.636-0.838-1.132
				c-0.193-0.497-0.295-1.178-0.295-2.035v-18.402c0-0.835,0.104-1.506,0.317-2.002c0.209-0.502,0.487-0.885,0.835-1.15
				c0.351-0.271,0.74-0.435,1.184-0.503c0.44-0.077,0.896-0.105,1.359-0.105h20.871v3.098h-14.632c-0.721,0-1.247,0.104-1.571,0.315
				c-0.325,0.208-0.487,0.721-0.487,1.532v5.643H1950.367z"/>
			<path fill="#3E3A39" d="M1997.127,856.437c-0.554,1.321-1.299,2.546-2.226,3.657c-0.934,1.117-2.046,2.071-3.343,2.875
				c-1.306,0.803-2.777,1.435-4.426,1.88c-1.657,0.454-3.465,0.681-5.44,0.681c-2.554,0-4.837-0.373-6.846-1.114
				c-2.012-0.74-3.713-1.749-5.104-3.013c-1.393-1.265-2.465-2.76-3.208-4.478c-0.744-1.717-1.114-3.55-1.114-5.507
				c0-1.955,0.365-3.779,1.098-5.49c0.732-1.704,1.787-3.189,3.174-4.459c1.38-1.264,3.081-2.265,5.104-2.995
				c2.021-0.735,4.321-1.098,6.897-1.098c2.09,0,3.964,0.219,5.612,0.658c1.648,0.444,3.102,1.053,4.355,1.835
				c1.255,0.774,2.33,1.712,3.221,2.802c0.896,1.093,1.623,2.278,2.182,3.555h-7.667c-0.348-0.86-0.787-1.654-1.31-2.385
				c-0.519-0.73-1.107-1.363-1.753-1.896c-0.652-0.535-1.366-0.947-2.131-1.243c-0.766-0.288-1.581-0.429-2.438-0.429
				c-1.258,0-2.412,0.296-3.468,0.886c-1.056,0.594-1.967,1.391-2.74,2.399c-0.762,1.014-1.363,2.195-1.808,3.536
				c-0.439,1.349-0.663,2.792-0.663,4.324c0,1.603,0.234,3.092,0.703,4.461c0.459,1.375,1.08,2.551,1.863,3.535
				c0.776,0.987,1.695,1.762,2.748,2.32c1.059,0.555,2.182,0.832,3.364,0.832c0.839,0,1.644-0.143,2.421-0.43
				c0.776-0.298,1.503-0.707,2.179-1.241c0.674-0.536,1.285-1.175,1.829-1.932c0.544-0.756,0.993-1.596,1.344-2.527H1997.127z"/>
			<path fill="#3E3A39" d="M2001.101,838.493h7.872v25.922h-7.872V838.493z"/>
			<path fill="#3E3A39" d="M2044.518,862.225c0,0.598-0.203,1.117-0.609,1.547s-1.005,0.644-1.789,0.644h-4.185
				c-0.956,0-1.688-0.209-2.198-0.626c-0.512-0.42-0.973-0.955-1.396-1.605l-11.529-18.12v20.352h-7.874v-23.729
				c0-0.608,0.194-1.124,0.592-1.553c0.391-0.432,0.984-0.641,1.773-0.641h4.6c0.84,0,1.53,0.199,2.076,0.608
				c0.545,0.405,1.002,0.899,1.377,1.479l11.289,18.123v-20.21h7.873V862.225z"/>
			<path fill="#3E3A39" d="M2074.348,849.081v3.069h-16.449v7.319c0,0.257,0.014,0.497,0.037,0.728
				c0.02,0.238,0.096,0.427,0.228,0.591c0.13,0.164,0.313,0.297,0.556,0.388c0.246,0.09,0.588,0.14,1.03,0.14h14.841v3.1h-20.63
				c-0.553,0-1.073-0.032-1.546-0.103c-0.478-0.071-0.898-0.235-1.255-0.489c-0.362-0.254-0.644-0.636-0.839-1.132
				c-0.193-0.497-0.299-1.178-0.299-2.035v-18.402c0-0.835,0.109-1.506,0.317-2.002c0.212-0.502,0.488-0.885,0.837-1.15
				c0.352-0.271,0.738-0.435,1.186-0.503c0.438-0.077,0.895-0.105,1.356-0.105h20.872v3.098h-14.631
				c-0.721,0-1.247,0.104-1.573,0.315c-0.322,0.208-0.487,0.721-0.487,1.532v5.643H2074.348z"/>
			<path fill="#3E3A39" d="M2094.45,864.415c-0.278,0-0.542,0.005-0.784,0.016c-0.244,0.014-0.484-0.043-0.713-0.176
				c-0.234-0.12-0.473-0.343-0.717-0.638c-0.244-0.306-0.48-0.768-0.709-1.393l-6.73-17.008v19.198h-4.631v-23.761
				c0-0.608,0.195-1.12,0.596-1.54c0.389-0.417,0.996-0.621,1.807-0.621h5.02c0.813,0,1.488,0.204,2.036,0.621
				c0.548,0.42,0.934,0.932,1.169,1.54l5.47,14.774l5.857-14.774c0.25-0.608,0.643-1.12,1.165-1.54
				c0.522-0.417,1.189-0.621,2.002-0.621h5.402c0.813,0,1.413,0.204,1.812,0.621c0.397,0.42,0.593,0.932,0.593,1.54v23.761h-7.873
				v-19.652l-7.111,17.736c-0.188,0.513-0.383,0.896-0.592,1.148c-0.212,0.255-0.433,0.445-0.662,0.559
				c-0.229,0.119-0.468,0.182-0.693,0.197c-0.239,0.009-0.466,0.012-0.701,0.012H2094.45z"/>
			<path fill="#3E3A39" d="M2141.945,864.415l-2.647-5.193h-14.953l-2.678,5.193h-5.122l13.135-24.215
				c0.258-0.512,0.636-0.924,1.133-1.239c0.502-0.316,1.05-0.468,1.658-0.468h2.648c0.601,0,1.161,0.151,1.672,0.468
				c0.513,0.315,0.894,0.728,1.144,1.239l12.269,24.215H2141.945z M2125.919,856.156h11.813l-4.499-8.851
				c-0.183-0.325-0.38-0.622-0.59-0.89c-0.211-0.269-0.478-0.402-0.803-0.402c-0.351,0-0.638,0.145-0.868,0.42
				c-0.235,0.277-0.423,0.576-0.56,0.872L2125.919,856.156z"/>
		</g>
	</g>
	<polyline fill="none" stroke="#EEEBE6" stroke-width="2" stroke-miterlimit="10" points="737.217,391.162 934.235,768.04 
		897.998,891.11 	"/>
	<polyline fill="none" stroke="#EEEBE6" stroke-width="2" stroke-miterlimit="10" points="297.682,676.213 671.996,480.784 
		654.239,443.118 738.23,397.058 774.036,466.894 886.728,407.989 	"/>
	<polyline fill="none" stroke="#EEEBE6" stroke-width="2" stroke-miterlimit="10" points="424.236,1145.679 586.157,1055.578 
		657.107,1174.632 	"/>
	
		<line fill="#DEC291" stroke="#EEEBE6" stroke-width="2" stroke-miterlimit="10" x1="1375.961" y1="604.801" x2="1375.961" y2="874.978"/>
</g>
</svg>
